<svg width="54" height="54" xmlns="http://www.w3.org/2000/svg" fill="none">
 <defs>
  <linearGradient id="paint0_linear_704_65293" x1="0.00236" y1="0.005" x2="1.16331" y2="0.26407">
   <stop stop-color="#ACFADF"/>
   <stop offset="1" stop-color="#E8FFCE"/>
  </linearGradient>
  <linearGradient id="paint1_linear_704_65293" x1="0.06914" y1="-0.02268" x2="1.26413" y2="0.27655">
   <stop stop-color="#ACFADF"/>
   <stop offset="1" stop-color="#E8FFCE"/>
  </linearGradient>
 </defs>
 <g>
  <title>Layer 1</title>
  <path d="m14.73067,43.62999c-3.95593,-2.8077 -6.80174,-6.914 -8.04189,-11.6038c-1.24015,-4.6898 -0.79607,-9.6661 1.2549,-14.0622c2.05097,-4.3961 5.57889,-7.93363 9.96949,-9.9965c4.3905,-2.06287 9.3655,-2.52043 14.0587,-1.29298c4.6932,1.22744 8.8071,4.06211 11.6255,8.01038c2.8184,3.9483 4.1627,8.7601 3.7988,13.5974c-0.364,4.8374 -2.4131,9.3938 -5.7905,12.876c-3.3774,3.4821 -7.8692,5.6694 -12.6932,6.1808" stroke="url(#paint0_linear_704_65293)" stroke-width="3" id="svg_2"/>
  <path d="m24.27883,21.28515c2.8784,-2.1258 5.3534,-2.9111 7.4252,-2.3559c3.2381,0.8676 4.2193,3.6819 2.9435,8.443l-4.0918,15.2709c-0.6985,2.6069 -0.9746,4.68 -0.8282,6.2192l-3.4781,-0.932c-0.121,-1.4147 0.2781,-3.8372 1.1972,-7.2673l3.9264,-14.6535c0.3787,-1.4132 0.4386,-2.5148 0.1797,-3.3048c-0.2553,-0.8037 -0.9317,-1.3525 -2.0293,-1.6467c-1.6465,-0.4411 -3.5032,0.0393 -5.57,1.4414l-3.7885,14.139l-3.3958,-0.9099l3.7885,-14.1391c0.3419,-1.276 0.4468,-2.189 0.3148,-2.7391c-0.1183,-0.5464 -0.4793,-0.9004 -1.083,-1.0622c-0.9741,-0.261 -1.8283,0.5395 -2.5626,2.4015l-0.7409,-0.1985c1.1173,-3.127 2.8628,-4.3725 5.2365,-3.7365c1.0564,0.2831 1.8216,0.8851 2.2954,1.8062c0.4774,0.9073 0.5644,1.9821 0.261,3.2243z" fill="url(#paint1_linear_704_65293)" id="svg_3"/>
 </g>
</svg>