<?xml version="1.0" encoding="UTF-8" standalone="no"?>
<svg
        xmlns="http://www.w3.org/2000/svg"
        width="440"
        height="440"
        version="1.0"
>
    <defs>
        <linearGradient id="background" gradientTransform="rotate(50)">
            <stop offset="28%" stop-color="#E8FFCE" />
            <stop offset="75%" stop-color="#ACFADF" />
        </linearGradient>
    </defs>
    <rect width="100%" height="100%" fill="url(#background)"/>
    <path
            d="M110,376 A190,190 0 1,1 240,410"
            fill='none'
            stroke="#0E111B"
            stroke-width="22"
    />
    <g
            aria-label="η"
            style="font-style:normal;font-weight:normal;line-height:0%;font-family:'Times New Roman';text-align:start;text-anchor:start;fill:#0E111B;fill-opacity:1;stroke:none;stroke-width:1px;stroke-linecap:butt;stroke-linejoin:miter;stroke-opacity:1"
            transform="translate(-30.6798,-611)">
        <path
                transform="rotate(15)"
                d="m 420.49677,694.66455 q 30.66406,-38.47656 60.15625,-38.47656 46.09375,0 46.09375,67.77344 V 868.8833 q 0,37.10938 7.42187,57.03125 h -33.00781 q -6.64063,-18.35937 -6.64063,-67.1875 v -139.0625 q 0,-20.11719 -6.25,-29.6875 -6.25,-9.76562 -21.875,-9.76562 -23.4375,0 -45.89843,25.97656 V 840.36768 H 388.2702 V 706.18799 q 0,-18.16406 -3.71093,-25 -3.51563,-6.83594 -12.10938,-6.83594 -13.86719,0 -16.99219,27.34375 h -7.03125 q 3.71094,-45.50781 37.5,-45.50781 15.03907,0 24.60938,10.54687 9.57031,10.35157 9.96094,27.92969 z"
                style="font-size:400px;line-height:1.25;text-align:center;text-anchor:middle"
                id="path814"/>
    </g>
</svg>
