<svg width="512" height="512" viewBox="0 0 512 512" fill="none" xmlns="http://www.w3.org/2000/svg">
<path d="M463.552 417.356H377.327V381.773H427.966V128.583H147.402V218.908L111.82 183.327V93H463.552V417.356Z" fill="url(#paint0_linear_506_368)"/>
<path d="M215.273 359.876C215.273 348.106 217.463 337.773 221.843 328.877C226.359 319.981 232.449 313.138 240.114 308.348C247.778 303.558 256.332 301.163 265.775 301.163C273.85 301.163 280.898 302.805 286.92 306.09C293.079 309.375 297.8 313.686 301.085 319.023V302.805H336.19V417.357H301.085V401.139C297.663 406.476 292.873 410.788 286.715 414.072C280.693 417.357 273.644 418.999 265.57 418.999C256.263 418.999 247.778 416.604 240.114 411.814C232.449 406.887 226.359 399.976 221.843 391.08C217.463 382.047 215.273 371.646 215.273 359.876ZM301.085 360.081C301.085 351.322 298.621 344.411 293.694 339.347C288.904 334.283 283.019 331.751 276.039 331.751C269.06 331.751 263.106 334.283 258.179 339.347C253.389 344.274 250.994 351.117 250.994 359.876C250.994 368.635 253.389 375.615 258.179 380.815C263.106 385.879 269.06 388.411 276.039 388.411C283.019 388.411 288.904 385.879 293.694 380.815C298.621 375.752 301.085 368.84 301.085 360.081Z" fill="url(#paint1_linear_506_368)"/>
<path d="M206.805 387.59V417.357H188.945C176.217 417.357 166.295 414.278 159.178 408.119C152.061 401.823 148.503 391.627 148.503 377.531V331.957H134.543V302.806H148.503V274.886H183.607V302.806H206.6V331.957H183.607V377.941C183.607 381.363 184.429 383.826 186.071 385.332C187.713 386.837 190.45 387.59 194.283 387.59H206.805Z" fill="url(#paint2_linear_506_368)"/>
<path d="M71.1047 301.369V330.52H118.116V357.618H71.1047V389.232H124.275V417.357H36V273.244H124.275V301.369H71.1047Z" fill="url(#paint3_linear_506_368)"/>
<defs>
<linearGradient id="paint0_linear_506_368" x1="439.75" y1="234.185" x2="125.834" y2="351.843" gradientUnits="userSpaceOnUse">
<stop stop-color="#DEFECD"/>
<stop offset="1" stop-color="#A0F9DA"/>
</linearGradient>
<linearGradient id="paint1_linear_506_368" x1="467.795" y1="228.491" x2="26.8588" y2="345.754" gradientUnits="userSpaceOnUse">
<stop stop-color="#DEFECD"/>
<stop offset="1" stop-color="#A0F9DA"/>
</linearGradient>
<linearGradient id="paint2_linear_506_368" x1="473.953" y1="246.967" x2="126.046" y2="143.141" gradientUnits="userSpaceOnUse">
<stop stop-color="#DEFECD"/>
<stop offset="1" stop-color="#A0F9DA"/>
</linearGradient>
<linearGradient id="paint3_linear_506_368" x1="467.795" y1="232.597" x2="78.6383" y2="173.192" gradientUnits="userSpaceOnUse">
<stop stop-color="#DEFECD"/>
<stop offset="1" stop-color="#A0F9DA"/>
</linearGradient>
</defs>
</svg>
