<svg width="512" height="512" viewBox="0 0 512 512" fill="none" xmlns="http://www.w3.org/2000/svg">
<rect width="512" height="512" fill="url(#paint0_linear_506_353)"/>
<path d="M421.613 378.681H352.316V350.083H393.015V146.598H167.531V219.191L138.935 190.595V118H421.613V378.681Z" fill="url(#paint1_linear_506_353)"/>
<path d="M222.078 332.484C222.078 323.025 223.838 314.72 227.358 307.571C230.987 300.421 235.882 294.922 242.042 291.072C248.201 287.222 255.076 285.297 262.665 285.297C269.155 285.297 274.819 286.617 279.659 289.257C284.608 291.897 288.403 295.362 291.043 299.651V286.617H319.256V378.68H291.043V365.646C288.293 369.936 284.443 373.401 279.494 376.041C274.654 378.68 268.99 380 262.5 380C255.021 380 248.201 378.076 242.042 374.226C235.882 370.266 230.987 364.712 227.358 357.562C223.838 350.303 222.078 341.943 222.078 332.484ZM291.043 332.649C291.043 325.609 289.063 320.055 285.103 315.985C281.254 311.915 276.524 309.881 270.914 309.881C265.305 309.881 260.52 311.915 256.561 315.985C252.711 319.945 250.786 325.444 250.786 332.484C250.786 339.523 252.711 345.133 256.561 349.313C260.52 353.382 265.305 355.417 270.914 355.417C276.524 355.417 281.254 353.382 285.103 349.313C289.063 345.243 291.043 339.688 291.043 332.649Z" fill="url(#paint2_linear_506_353)"/>
<path d="M215.272 354.757V378.681H200.918C190.689 378.681 182.714 376.206 176.995 371.256C171.275 366.196 168.415 358.002 168.415 346.673V310.046H157.196V286.617H168.415V264.179H196.628V286.617H215.107V310.046H196.628V347.003C196.628 349.753 197.288 351.733 198.608 352.942C199.928 354.152 202.128 354.757 205.208 354.757H215.272Z" fill="url(#paint3_linear_506_353)"/>
<path d="M106.213 285.462V308.891H143.995V330.669H106.213V356.077H148.945V378.68H78V262.859H148.945V285.462H106.213Z" fill="url(#paint4_linear_506_353)"/>
<defs>
<linearGradient id="paint0_linear_506_353" x1="429" y1="437" x2="0" y2="0" gradientUnits="userSpaceOnUse">
<stop stop-color="#0E0E11"/>
<stop offset="1" stop-color="#1E1E23"/>
</linearGradient>
<linearGradient id="paint1_linear_506_353" x1="402.484" y1="231.468" x2="150.196" y2="326.027" gradientUnits="userSpaceOnUse">
<stop stop-color="#DEFECD"/>
<stop offset="1" stop-color="#A0F9DA"/>
</linearGradient>
<linearGradient id="paint2_linear_506_353" x1="425.024" y1="226.892" x2="70.6531" y2="321.133" gradientUnits="userSpaceOnUse">
<stop stop-color="#DEFECD"/>
<stop offset="1" stop-color="#A0F9DA"/>
</linearGradient>
<linearGradient id="paint3_linear_506_353" x1="429.973" y1="241.741" x2="150.367" y2="158.299" gradientUnits="userSpaceOnUse">
<stop stop-color="#DEFECD"/>
<stop offset="1" stop-color="#A0F9DA"/>
</linearGradient>
<linearGradient id="paint4_linear_506_353" x1="425.024" y1="230.192" x2="112.267" y2="182.45" gradientUnits="userSpaceOnUse">
<stop stop-color="#DEFECD"/>
<stop offset="1" stop-color="#A0F9DA"/>
</linearGradient>
</defs>
</svg>
