<svg width="332" height="320" viewBox="0 0 332 320" fill="none" xmlns="http://www.w3.org/2000/svg">
<path style="mix-blend-mode:screen" d="M156.681 0.0154625C241.963 1.24502 310.11 71.1478 308.864 156.154C307.634 241.146 237.497 309.06 152.214 307.815C66.9167 306.586 -1.21504 236.683 0.0154313 151.676C1.2459 66.685 71.3829 -1.2141 156.681 0.0154625Z" fill="url(#paint0_radial_1038_5099)"/>
<path style="mix-blend-mode:color-dodge" d="M155.587 75.3069C199.155 75.9444 233.957 111.647 233.319 155.061C232.696 198.475 196.846 233.161 153.308 232.539C109.74 231.901 74.9375 196.199 75.5755 152.784C76.2136 109.37 112.034 74.6845 155.587 75.3221V75.3069Z" fill="url(#paint1_radial_1038_5099)"/>
<path style="mix-blend-mode:screen" d="M130.462 86.0081C169.397 86.577 200.526 117.032 199.993 154.029C199.46 191.027 167.464 220.561 128.538 219.992C89.5948 219.423 58.4736 188.968 59.0067 151.971C59.5399 114.973 91.5357 85.4392 130.47 86.0081H130.462Z" fill="url(#paint2_radial_1038_5099)"/>
<path style="mix-blend-mode:screen" d="M228.462 155.008C267.397 155.577 298.526 186.032 297.993 223.029C297.46 260.027 265.464 289.561 226.538 288.992C187.595 288.423 156.474 257.968 157.007 220.971C157.54 183.973 189.536 154.439 228.47 155.008H228.462Z" fill="url(#paint3_radial_1038_5099)"/>
<path d="M243.942 238.727H224.581V197.486H139.361V238.727H120V105H139.361V145.248H224.581V105H243.942V238.727ZM140.276 182.059H225.495V160.751H140.276V182.059Z" fill="url(#paint4_radial_1038_5099)" style="mix-blend-mode:color-dodge"/>
<path style="mix-blend-mode:screen" d="M59.6706 135.631C59.8528 134.918 60.0655 134.22 60.3238 133.521L63.3164 124.11C64.319 121.59 65.0786 119.935 65.0786 119.905L65.1697 119.708L65.3824 119.647C65.3824 119.647 68.8915 118.615 72.2487 117.825C73.9501 117.416 75.6211 117.036 76.8668 116.778C76.8668 116.778 78.1125 116.52 78.7961 116.429L81.3633 111.829C81.6672 111.313 81.9558 110.782 82.2596 110.205C82.8065 109.188 83.4293 108.035 84.1737 106.911L89.7488 98.9115C90.1741 98.3195 90.6299 97.7882 91.0856 97.2872C91.3287 96.9988 91.5717 96.7256 91.8148 96.4372L95.4758 92.1413C96.6607 90.684 97.5418 89.7429 98.2102 89.1509L99.2888 88.1187L99.942 88.7866L98.8482 89.834C98.195 90.4108 97.3595 91.3216 96.1898 92.7333L92.5288 97.0292C92.3009 97.3176 92.0426 97.5908 91.7996 97.8944C91.3742 98.3953 90.9185 98.8963 90.5235 99.4428L84.9636 107.427C84.2496 108.505 83.6724 109.598 83.0951 110.645C82.7761 111.222 82.4875 111.769 82.1837 112.285L79.3278 117.385L79.0695 117.309C78.8264 117.34 78.0517 117.446 77.0643 117.674C75.8186 117.932 74.1476 118.296 72.4614 118.706C69.6055 119.389 66.6432 120.239 65.8381 120.467C65.6102 120.968 64.9722 122.425 64.1975 124.398L61.22 133.795C60.6124 135.48 60.2478 137.225 59.9288 138.849L58.1059 147.593C58.2274 147.805 58.4705 148.215 58.835 148.747L60.8251 151.646L63.8329 155.82L63.3772 160.056C63.2708 161.574 63.2708 163.441 63.2708 165.429C63.2708 166.583 63.2708 167.782 63.2708 168.966C63.1493 171.486 63.3924 173.945 63.605 176.101C63.6658 176.723 63.7266 177.3 63.7721 177.846L64.1671 182.081L63.3164 183.25C62.9822 183.706 62.572 184.267 62.253 184.829L60.7035 187.379L61.5998 191.948C61.7062 192.434 61.8125 192.965 61.9036 193.542C62.0859 194.574 62.2834 195.652 62.648 196.745L64.2734 202.21C64.4861 202.847 64.6684 203.515 64.8659 204.183C65.2153 205.382 65.5343 206.521 65.9748 207.599L69.727 216.843L69.2865 218.27L68.6029 220.987L67.6914 224.903L70.6689 230.566L74.3147 236.182C74.6945 236.744 75.0743 237.321 75.454 237.928C76.4415 239.461 77.4593 241.055 78.6897 242.482L79.7379 243.802C82.685 247.536 85.4649 251.058 88.0322 253.472L92.5136 258.102C92.7566 258.132 93.3035 258.178 94.063 258.178L97.9975 258.223C100.777 258.223 103.497 258.162 103.527 258.147H103.709L106.656 260.637C107.765 261.456 109.178 262.443 110.682 263.475C111.518 264.052 112.383 264.644 113.234 265.251C113.659 265.54 114.1 265.843 114.525 266.147C115.3 266.693 116.029 267.209 116.774 267.665L123.108 271.187L127.863 270.018L132.907 268.318L135.808 269.562C136.34 269.775 136.947 270.048 137.585 270.336C138.861 270.913 140.289 271.566 141.808 271.961L150.908 274.845L150.619 275.74L141.535 272.856C139.97 272.446 138.482 271.779 137.19 271.202C136.568 270.913 135.975 270.655 135.443 270.443L132.861 269.319L128.121 270.928L122.972 272.188L116.303 268.469C115.513 267.984 114.738 267.437 113.978 266.906C113.553 266.602 113.128 266.314 112.702 266.01C111.837 265.403 110.971 264.811 110.135 264.234C108.631 263.187 107.203 262.2 106.049 261.35L103.36 259.073C102.707 259.073 100.367 259.149 97.9671 259.134L94.0327 259.088C92.9085 259.088 92.2401 258.982 92.2097 258.982L92.0578 258.952L87.3638 254.109C84.7661 251.665 81.971 248.113 78.9935 244.364L77.9606 243.058C76.6997 241.601 75.6667 239.977 74.6489 238.413C74.2691 237.821 73.9046 237.245 73.5248 236.683L69.8485 231.021L66.6888 225.01L68.375 218.012L68.7244 216.889L65.0938 207.948C64.638 206.84 64.2886 205.625 63.9544 204.441C63.7721 203.788 63.5747 203.136 63.3772 202.483L61.7517 197.018C61.372 195.865 61.1593 194.711 60.977 193.694C60.8858 193.147 60.7795 192.631 60.6732 192.146L59.7009 187.197L61.4327 184.328C61.7821 183.736 62.2075 183.159 62.5417 182.689L63.1797 181.808L62.8151 177.922C62.7695 177.376 62.7088 176.799 62.648 176.192C62.4201 173.991 62.1771 171.501 62.2986 168.921C62.3138 167.752 62.3138 166.552 62.3138 165.414C62.3138 163.41 62.3138 161.513 62.4201 159.949L62.8303 156.063L60.0351 152.162L58.0451 149.248C57.483 148.428 57.1792 147.881 57.1792 147.866L57.1033 147.714L59.0022 138.637C59.1996 137.65 59.4123 136.618 59.6857 135.571L59.6706 135.631Z" fill="url(#paint5_radial_1038_5099)"/>
<path style="mix-blend-mode:screen" d="M150.832 274.875L161.754 277.152C162.985 277.319 164.321 277.456 165.658 277.592C166.478 277.668 167.314 277.759 168.134 277.85C168.909 277.911 169.714 278.002 170.504 278.109C171.902 278.276 173.223 278.442 174.515 278.397L184.161 278.442L185.862 278.291L186.014 278.473C186.014 278.473 188.217 281.069 190.602 283.588C192.561 285.698 194.658 287.778 195.433 288.522L196.45 288.431C196.921 288.37 197.544 288.249 198.273 288.097C198.683 288.021 199.139 287.93 199.61 287.839C200.506 287.641 201.509 287.459 202.572 287.262C204.638 286.867 206.993 286.427 209.272 285.85L218.736 283.027C219.586 282.814 220.285 282.511 220.908 282.253C221.227 282.116 221.516 281.995 221.774 281.903L222.731 281.524L224.949 277.183L227.136 272.583L227.334 272.522C227.334 272.522 227.698 272.401 228.26 272.097L230.888 270.716C231.633 270.306 232.499 269.866 233.41 269.395C235.081 268.545 236.965 267.589 238.742 266.481L246.262 261.593C246.945 261.183 247.477 260.743 247.948 260.363C248.191 260.166 248.404 259.984 248.616 259.832L249.619 259.028L252.961 259.24L256.014 259.392L256.911 258.678C257.063 258.557 257.245 258.405 257.442 258.253C258.035 257.783 258.779 257.206 259.524 256.432C260.238 255.734 261.027 254.975 261.878 254.155C263.519 252.576 265.372 250.8 267.18 248.979L274.077 240.888C274.669 240.174 275.125 239.506 275.535 238.899C275.748 238.58 275.945 238.307 276.112 238.064L276.963 236.835L281.186 235.757L285.151 234.649C285.288 234.452 285.607 234.011 286.032 233.313L291.637 223.264C292.336 221.837 292.989 220.304 293.673 218.695C294.022 217.875 294.372 217.056 294.736 216.236C296.574 212.426 297.851 208.327 298.868 205.048C299.127 204.213 299.37 203.424 299.613 202.68C300.676 199.644 301.147 197.367 301.299 196.563C300.995 195.986 299.856 193.8 298.701 191.721C297.562 189.686 296.407 187.713 296.073 187.151L295.815 187.076L295.921 186.62C296.012 186.271 296.301 184.966 296.438 183.068L297.288 175.008C297.471 173.778 297.471 172.548 297.471 171.364L297.501 163.471C296.985 162.894 295.587 161.391 293.992 159.98L289.389 155.851L290.042 155.79C289.906 153.331 287.445 138.956 286.746 137.878L287.08 137.665L286.943 137.104L287.46 137.286C288.128 138.06 290.939 153.376 290.954 156.033L294.584 159.297C296.24 160.754 297.683 162.333 298.185 162.894L298.397 162.955L298.352 171.38C298.352 172.594 298.352 173.869 298.154 175.144L297.304 183.174C297.182 184.89 296.924 186.15 296.802 186.681C297.137 187.258 298.306 189.231 299.461 191.28C300.813 193.694 302.134 196.259 302.15 196.29L302.347 196.669L302.15 196.791C301.982 197.671 301.496 199.963 300.433 202.984C300.19 203.713 299.947 204.502 299.689 205.337C298.656 208.661 297.364 212.79 295.511 216.646C295.162 217.45 294.812 218.27 294.463 219.074C293.764 220.699 293.111 222.247 292.382 223.719L286.761 233.799C285.819 235.362 285.607 235.575 285.364 235.56L281.353 236.683L277.464 237.67L276.811 238.626C276.629 238.869 276.446 239.142 276.249 239.431C275.854 240.023 275.353 240.751 274.73 241.495L267.803 249.616C265.965 251.468 264.111 253.244 262.471 254.823C261.635 255.627 260.845 256.386 260.131 257.085C259.356 257.889 258.582 258.496 257.959 258.982C257.761 259.134 257.594 259.27 257.442 259.392L256.257 260.333L249.862 259.969L249.133 260.561C248.935 260.713 248.723 260.88 248.51 261.062C248.039 261.456 247.462 261.942 246.718 262.367L239.213 267.24C237.39 268.378 235.476 269.35 233.79 270.2C232.878 270.655 232.043 271.095 231.283 271.505L228.655 272.887C228.276 273.099 227.957 273.236 227.759 273.312L225.739 277.547L223.369 282.222L222.062 282.754C221.804 282.845 221.531 282.966 221.242 283.088C220.619 283.346 219.86 283.68 218.948 283.907L209.484 286.731C207.145 287.323 204.79 287.763 202.709 288.158C201.646 288.355 200.643 288.552 199.747 288.734C199.261 288.825 198.82 288.917 198.395 288.992C197.65 289.144 197.012 289.266 196.496 289.326L195.022 289.463L194.871 289.311C194.202 288.658 191.939 286.442 189.842 284.196C187.822 282.04 185.938 279.869 185.391 279.217L184.13 279.338L174.454 279.293C173.117 279.338 171.689 279.156 170.322 278.989C169.547 278.898 168.772 278.807 167.982 278.746C167.147 278.655 166.327 278.564 165.506 278.488C164.154 278.351 162.802 278.215 161.526 278.033L150.573 275.756L150.771 274.83L150.832 274.875Z" fill="url(#paint6_radial_1038_5099)"/>
<path style="mix-blend-mode:screen" d="M52.3636 133.567C54.9765 123.594 58.3033 115.473 61.0833 109.689C66.5521 99.0784 72.5373 89.8188 77.9909 83.6102C78.8872 82.5628 79.7075 81.5913 80.467 80.7109C81.7431 79.2081 82.8065 77.9634 83.6572 77.0374L85.9054 74.8667L87.303 76.3088L85.1003 78.4339C84.2952 79.2992 83.2622 80.5288 82.0165 82.0012C81.257 82.8968 80.4367 83.8683 79.5252 84.9309C74.1931 91.0331 68.2838 100.141 62.9062 110.585C58.6679 119.419 53.1232 133.795 50.8901 151.98C48.8697 168.283 50.1306 185.284 54.5511 201.162C58.8806 217.01 66.4457 232.296 76.4566 245.381C85.708 257.479 96.5999 267.65 107.932 274.814C109.938 276.332 112.019 277.471 114.024 278.579L115.725 279.535C116.637 280.021 117.533 280.537 118.429 281.038C119.979 281.919 121.452 282.754 122.911 283.406L129.595 286.29C130.278 286.564 130.947 286.867 131.6 287.156C132.861 287.717 134.046 288.249 135.185 288.537L146.411 292.089L145.804 294.017L134.623 290.465C133.377 290.146 132.117 289.584 130.78 288.977C130.142 288.704 129.504 288.416 128.82 288.142L122.121 285.243C120.541 284.56 119.037 283.695 117.427 282.784C116.561 282.283 115.68 281.782 114.753 281.296L113.037 280.355C110.971 279.217 108.814 278.033 106.763 276.484C95.2935 269.244 84.2192 258.906 74.8312 246.626C64.6684 233.328 56.9665 217.799 52.5763 201.709C48.095 185.588 46.8189 168.313 48.8697 151.752C49.6748 145.179 50.9053 139.107 52.3484 133.582L52.3636 133.567Z" fill="url(#paint7_radial_1038_5099)"/>
<path style="mix-blend-mode:screen" d="M44.5251 141.248L52.4092 142.902L52.1358 144.238C52.0902 144.466 52.0142 144.861 51.9079 145.316C51.756 145.984 51.5737 146.804 51.437 147.76C51.3458 148.731 51.2091 150.052 51.042 151.524C50.7382 154.333 50.3736 157.521 50.1154 161.179C49.5685 174.127 51.2091 188.73 54.6423 201.132L56.526 207.447C56.9361 208.858 57.3311 210.179 57.8476 211.333L61.9947 221.458L68.0863 232.949L71.2917 237.882C73.6159 241.723 75.9857 244.683 77.8998 247.051L81.5912 251.681C81.9558 252.151 82.1532 252.379 82.214 252.44L76.4262 258.041C76.4262 258.041 75.9705 257.585 75.2261 256.629L71.6107 252.09C69.651 249.662 66.9774 246.337 64.4557 242.132L60.3389 235.681L54.5815 224.661L50.4344 214.505C49.7356 212.972 49.2495 211.302 48.7785 209.709L46.8797 203.348C43.2034 190.096 41.4565 174.583 42.0489 160.708C42.3376 156.792 42.7021 153.376 43.006 150.644C43.1579 149.217 43.3098 147.942 43.4009 146.819C43.5984 145.422 43.8111 144.405 43.9934 143.585C44.0693 143.252 44.1301 142.948 44.1757 142.69L44.4795 141.248H44.5251Z" fill="url(#paint8_radial_1038_5099)"/>
<path style="mix-blend-mode:screen" d="M85.8901 74.8517L92.4223 68.5369L102.145 60.8104C102.843 60.3246 103.527 59.8844 104.226 59.429L112.323 54.1616C113.978 53.2053 115.695 52.3249 117.457 51.4141C118.46 50.898 119.478 50.3667 120.51 49.8202C129.762 45.2208 144.512 39.2855 162.423 36.9782C178.859 34.7771 196.177 35.87 212.492 40.1507C228.807 44.4314 244.439 51.9606 257.686 61.9489C272.147 72.7417 282.082 85.1587 287.87 93.6594C288.508 94.6612 289.146 95.6327 289.754 96.5739C290.848 98.2285 291.896 99.8375 292.853 101.431L297.349 110.038C297.729 110.767 298.109 111.48 298.458 112.194L303.335 124.353L305.75 132.459L303.821 133.036L301.223 124.338L296.62 113.014C296.316 112.391 295.952 111.693 295.572 110.979L291.106 102.418C290.194 100.885 289.161 99.3062 288.083 97.682C287.46 96.7257 286.822 95.7694 286.199 94.7827C280.518 86.4186 270.735 74.1989 256.485 63.5579C243.436 53.7366 228.063 46.3137 211.991 42.0937C195.919 37.8889 178.874 36.8112 162.681 38.9667C145.044 41.2437 130.521 47.1031 121.437 51.6114C120.435 52.1579 119.402 52.674 118.384 53.2053C116.652 54.1009 114.966 54.9662 113.386 55.877L105.335 61.114C104.666 61.5542 103.998 61.9792 103.375 62.4043L93.4097 70.404L87.3181 76.2786L85.9205 74.8365L85.8901 74.8517Z" fill="url(#paint9_radial_1038_5099)"/>
<path style="mix-blend-mode:screen" d="M151.941 32.7885L157.926 31.6197C158.61 31.483 159.324 31.3312 160.098 31.2553L171.127 30.2079C179.619 29.7981 196.177 29.8284 213.935 34.4279C231.678 39.1488 246.14 47.2396 253.174 51.6569L262.38 58.0476C263.063 58.5334 263.625 59.0191 264.157 59.4897L268.79 63.4364L263.564 69.5691L259.584 66.184C259.402 66.0322 259.129 65.8045 258.87 65.5616C258.521 65.258 258.156 64.9392 257.731 64.6356L248.738 58.3967C237.588 51.3989 224.098 45.4788 211.9 42.2455C199.701 39.0881 185.042 37.646 171.704 38.2684L160.919 39.3006C160.478 39.3461 159.992 39.4524 159.536 39.5435C159.187 39.6194 158.837 39.6801 158.503 39.7408L153.46 40.7275L151.926 32.8189L151.941 32.7885Z" fill="url(#paint10_radial_1038_5099)"/>
<path style="mix-blend-mode:screen" d="M146.305 292.059L157.789 294.457C158.974 294.776 160.265 294.897 161.648 295.019C162.362 295.08 163.091 295.156 163.835 295.247L171.051 296.006C172.646 296.173 174.332 296.157 176.125 296.142C177.143 296.142 178.191 296.142 179.239 296.142H181.168C183.462 296.188 185.832 296.203 188.232 295.869C201.722 295.186 216.214 291.649 230.205 285.653C245.35 279.156 259.463 269.547 271.008 257.859C282.644 246.186 292.108 231.993 298.352 216.798C305.34 199.857 307.573 184.601 308.226 174.81C308.667 163.092 307.998 152.268 306.342 144.345C306.069 142.978 305.826 141.718 305.613 140.565C305.249 138.667 304.945 137.089 304.656 135.889L303.79 133.005L305.72 132.428L306.601 135.358C306.905 136.648 307.208 138.257 307.588 140.185C307.801 141.324 308.044 142.584 308.317 143.935C310.003 151.995 310.687 163.001 310.231 174.901C309.578 184.89 307.299 200.358 300.205 217.557C293.855 232.994 284.255 247.415 272.436 259.271C260.709 271.141 246.383 280.887 230.995 287.49C216.776 293.592 202.056 297.174 188.414 297.857C185.954 298.207 183.508 298.176 181.138 298.161H179.209C178.145 298.131 177.128 298.131 176.125 298.131C174.287 298.131 172.54 298.146 170.838 297.979L163.592 297.22C162.848 297.129 162.134 297.053 161.45 296.992C159.992 296.856 158.61 296.734 157.318 296.385L145.895 294.002L146.305 292.028V292.059Z" fill="url(#paint11_radial_1038_5099)"/>
<path style="mix-blend-mode:screen" d="M219.1 291.376L221.667 288.977C221.667 288.977 222.047 288.856 222.548 288.643L228.093 286.397C230.934 285.258 234.458 283.862 238.241 281.706L246.095 277.365L254.526 271.885L262.987 265.191C264.126 264.356 265.114 263.399 266.147 262.382L270.962 257.722C279.986 248.66 288.584 236.744 294.524 225.086C296.027 221.883 297.288 218.923 298.412 216.312C298.99 214.946 299.506 213.731 299.977 212.684C300.251 211.955 300.494 211.166 300.691 210.498C300.828 210.058 300.949 209.663 301.056 209.344L301.435 208.145L309.122 210.574L308.712 211.879C308.59 212.228 308.499 212.517 308.408 212.851C308.165 213.655 307.846 214.657 307.421 215.78C306.889 216.98 306.388 218.164 305.826 219.469C304.747 222.004 303.395 225.177 301.77 228.623C295.42 241.115 286.275 253.775 276.629 263.46L271.783 268.151C270.583 269.319 269.352 270.519 267.879 271.596L259.083 278.534L246.034 286.715L242.099 288.765C237.952 291.118 233.972 292.711 231.086 293.865L225.647 296.066C224.797 296.431 224.219 296.613 224.083 296.643L222.852 292.818L219.1 291.36V291.376Z" fill="url(#paint12_radial_1038_5099)"/>
<path style="mix-blend-mode:screen" d="M144.679 279.539L144.31 280.696L148.928 282.163L149.297 281.006L144.679 279.539Z" fill="url(#paint13_radial_1038_5099)"/>
<path style="mix-blend-mode:screen" d="M127.058 274.04L127.559 272.932C127.772 273.023 128.015 273.129 128.273 273.236L133.909 275.664L133.423 276.788L127.802 274.359C127.544 274.253 127.286 274.147 127.043 274.04H127.058ZM137.737 278.609L138.102 277.441L140.305 278.139L139.94 279.308L137.737 278.609Z" fill="url(#paint14_radial_1038_5099)"/>
<path style="mix-blend-mode:screen" d="M62.5416 143.844L63.7417 144.086L63.4986 145.286C63.4379 145.65 63.3315 146.09 63.2252 146.576C63.0125 147.502 62.7543 148.64 62.6176 149.976C62.6024 150.234 62.572 150.523 62.5416 150.811L61.3263 150.705C61.3567 150.416 61.3719 150.143 61.4023 149.87C61.5542 148.443 61.8276 147.259 62.0403 146.303C62.1466 145.832 62.2378 145.407 62.2985 145.043L62.5568 143.828L62.5416 143.844ZM60.8098 155.289L62.0251 155.426C61.9492 156.17 61.858 156.929 61.782 157.718L60.5668 157.596C60.6427 156.807 60.7187 156.033 60.8098 155.304V155.289ZM60.2478 162.226L61.463 162.272C61.3871 163.957 61.3871 165.551 61.4478 167.144C61.4478 168.556 61.4478 169.983 61.5086 171.44L60.2933 171.486C60.2326 170.013 60.2174 168.556 60.2326 167.16C60.1718 165.566 60.187 163.942 60.2629 162.211L60.2478 162.226ZM60.4604 174.962L61.6757 174.886C61.8276 177.133 62.0555 179.44 62.3441 181.732L61.1288 181.884C60.8402 179.577 60.6123 177.239 60.4452 174.962H60.4604ZM61.8124 186.468L63.0125 186.271C63.134 187.015 63.2708 187.774 63.4075 188.533L62.2074 188.76C62.0707 188.001 61.934 187.242 61.8124 186.468ZM63.1341 193.299L64.3341 193.026C65.0025 196.032 65.7925 199.022 66.6736 201.906L65.5038 202.255C64.6228 199.356 63.8328 196.335 63.1492 193.299H63.1341ZM66.552 205.564L67.7065 205.17C68.4357 207.34 69.2408 209.511 70.1067 211.621L68.9826 212.092C68.1167 209.967 67.2964 207.766 66.552 205.564ZM70.8359 216.342L71.9448 215.826C72.2335 216.448 72.5221 217.056 72.8259 217.663L72.9475 217.86L71.8689 218.437L71.7474 218.209C71.4284 217.556 71.1397 216.949 70.8511 216.327L70.8359 216.342ZM73.9804 222.535L75.059 221.989C76.5477 224.903 77.9301 227.499 79.6163 229.898L78.6137 230.611C76.8667 228.152 75.4844 225.511 73.9653 222.551L73.9804 222.535ZM80.4974 233.465L81.5152 232.797L83.5204 235.878L85.5104 238.383L84.5534 239.142L82.1228 235.97L80.4974 233.48V233.465ZM87.3941 242.755L88.3664 242.011C88.8373 242.618 89.3082 243.195 89.8095 243.772L88.8828 244.561C88.3815 243.969 87.8954 243.362 87.4093 242.755H87.3941ZM92.0122 248.007L92.8933 247.157C93.4553 247.734 94.0022 248.295 94.5491 248.872C95.1567 249.479 95.7492 250.102 96.3265 250.709L98.438 252.88C98.7114 253.138 99.0305 253.396 99.3343 253.669L98.5443 254.595C98.2253 254.322 97.9063 254.033 97.5873 253.745L95.4454 251.544C94.8681 250.937 94.2757 250.33 93.668 249.707C93.106 249.146 92.5591 248.569 91.997 247.992L92.0122 248.007ZM101.172 256.842L101.962 255.901L104.864 258.375C105.578 259.043 106.353 259.68 107.218 260.348L106.474 261.32C105.563 260.621 104.773 259.969 104.043 259.286L101.157 256.842H101.172ZM110.287 263.991L110.971 262.989C111.563 263.384 112.125 263.779 112.657 264.174L112.854 264.31L112.156 265.312L111.958 265.175C111.411 264.781 110.849 264.386 110.287 263.991ZM115.999 267.923L116.667 266.891C117.518 267.437 118.262 267.862 118.916 268.196L124.673 271.399L124.08 272.462L118.338 269.274C117.67 268.94 116.895 268.5 115.999 267.923Z" fill="url(#paint15_radial_1038_5099)"/>
<path style="mix-blend-mode:screen" d="M63.9847 136.937L65.1848 137.18L64.1974 141.931L62.9973 141.688L63.9847 136.937Z" fill="url(#paint16_radial_1038_5099)"/>
<path style="mix-blend-mode:screen" d="M64.0151 136.876L65.4735 132.261L66.6432 132.626L65.1697 137.256L64.0151 136.876Z" fill="url(#paint17_radial_1038_5099)"/>
<path style="mix-blend-mode:screen" d="M66.8557 127.905L67.5545 125.704L68.7242 126.068L68.0254 128.269L66.8557 127.905ZM69.3774 121.393L71.7928 115.791C71.8991 115.518 72.0055 115.275 72.1118 115.032L73.2208 115.533C73.1296 115.746 73.0233 115.989 72.9169 116.247L70.4864 121.879L69.3622 121.393H69.3774Z" fill="url(#paint18_radial_1038_5099)"/>
<path style="mix-blend-mode:screen" d="M73.6917 112.057L76.8818 106.334C77.216 105.667 77.6565 104.892 78.2338 103.997L79.2668 104.665C78.7199 105.515 78.2945 106.259 77.9603 106.911L74.755 112.664L73.6917 112.072V112.057ZM80.8618 100.156L80.9985 99.959C81.3935 99.4125 81.7733 98.8509 82.1682 98.2892L83.1709 98.9723C82.7759 99.5643 82.3809 100.126 81.986 100.657L81.8492 100.855L80.8466 100.156H80.8618ZM84.8571 94.4791C85.5407 93.5683 86.2091 92.7789 86.8927 92.0503L89.3536 89.1662L90.2803 89.9555L87.8041 92.8548C87.1357 93.5835 86.4977 94.3425 85.8293 95.2077L84.8571 94.4639V94.4791ZM91.5715 86.5401C91.8449 86.2061 92.1336 85.8873 92.4222 85.5686L94.6249 83.4434C95.2325 82.8666 95.8402 82.2746 96.4478 81.6674C97.0099 81.1209 97.5871 80.5592 98.1644 80.0128L99.0151 80.8932C98.4378 81.4548 97.8758 82.0013 97.2985 82.5478C96.6909 83.1398 96.068 83.747 95.4604 84.3238L93.2729 86.4338C93.0146 86.707 92.7412 87.0258 92.483 87.3294L91.5563 86.5401H91.5715ZM101.613 76.8706C102.205 76.3696 102.798 75.8839 103.421 75.3981L104.165 76.3544C103.557 76.825 102.965 77.2956 102.403 77.7965L101.613 76.8706ZM107.051 72.5747L110.226 70.1459L112.717 68.5217L113.386 69.5387L110.302 71.5425L107.796 73.531L107.036 72.5747H107.051ZM115.604 66.6394C118.065 64.8937 120.708 63.4972 123.67 61.9944L124.232 63.0722C121.316 64.5598 118.718 65.9411 116.318 67.6261L115.604 66.6394ZM127.741 59.8692L127.969 59.7326C128.607 59.429 129.23 59.1254 129.853 58.837L130.369 59.9451C129.747 60.2335 129.139 60.522 128.531 60.8256L128.319 60.947L127.741 59.8692ZM134.122 57.0003C136.248 56.135 138.451 55.3153 140.654 54.5715L141.049 55.7252C138.876 56.4538 136.704 57.2583 134.592 58.1236L134.137 57.0003H134.122ZM143.95 53.5089C146.867 52.6285 149.875 51.8391 152.913 51.156L153.186 52.3401C150.178 53.008 147.186 53.7973 144.3 54.6778L143.95 53.5089ZM157.47 50.2301C158.23 50.0935 158.989 49.9568 159.749 49.8354L159.946 51.0346C159.202 51.156 158.442 51.2927 157.683 51.4293L157.455 50.2301H157.47ZM164.337 49.1675C166.661 48.8639 168.985 48.6514 171.264 48.4844L171.34 49.6988C169.091 49.8506 166.782 50.0783 164.488 50.3667L164.337 49.1523V49.1675ZM174.742 48.3023C176.231 48.2567 177.674 48.2264 179.072 48.2415C180.667 48.1808 182.292 48.196 184.024 48.2567L183.979 49.4863C182.292 49.4104 180.697 49.4104 179.102 49.4559C177.689 49.4559 176.261 49.4559 174.803 49.5166L174.758 48.3023H174.742ZM188.657 48.5907C189.463 48.6666 190.222 48.7425 190.966 48.8335L190.83 50.0479C190.101 49.972 189.341 49.8809 188.536 49.8202L188.657 48.6058V48.5907ZM195.539 49.3497C195.828 49.38 196.101 49.3952 196.374 49.4256C197.802 49.5774 198.987 49.8506 199.944 50.0631C200.415 50.1694 200.841 50.2604 201.205 50.3212L202.436 50.5792L202.177 51.7632L200.977 51.5204C200.613 51.4596 200.172 51.3686 199.671 51.2471C198.759 51.0346 197.605 50.7766 196.268 50.6399C196.01 50.6248 195.721 50.5944 195.433 50.564L195.539 49.3497Z" fill="url(#paint19_radial_1038_5099)"/>
<path style="mix-blend-mode:screen" d="M204.571 51.0463L204.323 52.2351L209.067 53.2237L209.315 52.0349L204.571 51.0463Z" fill="url(#paint20_radial_1038_5099)"/>
<path style="mix-blend-mode:screen" d="M209.363 52.0326L208.995 53.1902L213.614 54.6544L213.982 53.4968L209.363 52.0326Z" fill="url(#paint21_radial_1038_5099)"/>
<path style="mix-blend-mode:screen" d="M218.006 56.0438L218.371 54.875L220.574 55.5733L220.209 56.7421L218.006 56.059V56.0438ZM224.387 58.5181L224.873 57.3948L230.478 59.8084C230.736 59.9147 230.995 60.0209 231.223 60.1272L230.721 61.2353C230.509 61.1442 230.266 61.038 230.007 60.9317L224.371 58.503L224.387 58.5181Z" fill="url(#paint22_radial_1038_5099)"/>
<path style="mix-blend-mode:screen" d="M233.638 62.7684L234.231 61.7058L239.958 64.8936C240.626 65.2275 241.401 65.6677 242.297 66.2446L241.644 67.2768C240.793 66.7303 240.049 66.3053 239.396 65.9713L233.638 62.7684ZM245.426 69.8725L246.125 68.8707L246.323 69.0073C246.87 69.4019 247.432 69.7814 247.994 70.1761L247.295 71.178C246.718 70.7681 246.14 70.3735 245.609 69.994L245.411 69.8573L245.426 69.8725ZM251.077 73.8344L251.822 72.8629C252.733 73.546 253.523 74.2139 254.252 74.8818L257.139 77.341L256.349 78.2669L253.447 75.8078C252.733 75.1399 251.959 74.5023 251.093 73.8344H251.077ZM258.977 80.5135L259.767 79.5876C260.086 79.8608 260.405 80.134 260.724 80.4376L262.851 82.6387C263.428 83.2459 264.02 83.8531 264.628 84.4603C265.175 85.0219 265.737 85.5988 266.299 86.1756L265.418 87.0257C264.856 86.4488 264.309 85.8872 263.762 85.3103C263.154 84.688 262.562 84.0808 261.985 83.4736L259.873 81.2877C259.6 81.0296 259.281 80.7564 258.977 80.4984V80.5135ZM268.502 90.3956L269.428 89.6062C269.93 90.1982 270.416 90.7902 270.902 91.4126L269.93 92.1564C269.459 91.5492 268.988 90.9724 268.486 90.3956H268.502ZM272.785 95.7996L273.742 95.0406L276.173 98.2131L277.799 100.703L276.781 101.371L274.776 98.289L272.785 95.7844V95.7996ZM278.68 104.285L279.682 103.587C281.429 106.031 282.812 108.687 284.331 111.647L283.237 112.209C281.748 109.294 280.366 106.683 278.68 104.3V104.285ZM285.379 116.307L286.457 115.731L286.579 115.958C286.898 116.596 287.187 117.218 287.475 117.841L286.366 118.357C286.078 117.734 285.789 117.127 285.485 116.52L285.379 116.307ZM288.189 122.546L289.313 122.076C290.179 124.201 291 126.402 291.744 128.603L290.589 128.998C289.86 126.827 289.055 124.656 288.189 122.561V122.546ZM291.638 132.277L292.807 131.912C293.688 134.827 294.478 137.832 295.162 140.883L293.962 141.142C293.293 138.136 292.503 135.145 291.622 132.277H291.638ZM294.888 145.635L296.089 145.422C296.225 146.181 296.362 146.94 296.483 147.699L295.268 147.896C295.147 147.153 295.01 146.394 294.873 145.635H294.888ZM295.952 152.45L297.167 152.299C297.456 154.621 297.684 156.944 297.835 159.221L296.62 159.296C296.468 157.05 296.24 154.743 295.952 152.45ZM296.802 162.727L298.033 162.682C298.094 164.169 298.109 165.611 298.094 167.008C298.154 168.602 298.139 170.226 298.063 171.956L296.848 171.911C296.924 170.226 296.924 168.632 296.878 167.038C296.878 165.642 296.878 164.2 296.818 162.742L296.802 162.727ZM296.514 176.465L297.729 176.586C297.653 177.376 297.577 178.15 297.486 178.878L296.271 178.742C296.347 178.013 296.438 177.254 296.514 176.45V176.465ZM295.769 183.341L296.985 183.463C296.954 183.751 296.939 184.024 296.909 184.282C296.757 185.709 296.483 186.893 296.271 187.85C296.164 188.32 296.073 188.73 296.013 189.11L295.754 190.324L294.554 190.081L294.812 188.882C294.873 188.518 294.964 188.077 295.086 187.576C295.299 186.666 295.557 185.512 295.694 184.176C295.709 183.918 295.739 183.63 295.769 183.341Z" fill="url(#paint23_radial_1038_5099)"/>
<path style="mix-blend-mode:screen" d="M294.113 192.237L295.298 192.479L294.311 197.231L293.111 196.988L294.113 192.237Z" fill="url(#paint24_radial_1038_5099)"/>
<path style="mix-blend-mode:screen" d="M291.668 201.542L293.126 196.927L294.296 197.292L292.838 201.921L291.668 201.542Z" fill="url(#paint25_radial_1038_5099)"/>
<path style="mix-blend-mode:screen" d="M285.075 218.649C285.182 218.437 285.273 218.194 285.379 217.936L287.81 212.304L288.934 212.79L286.518 218.391C286.412 218.649 286.306 218.907 286.199 219.15L285.075 218.649ZM289.587 208.099L290.286 205.898L291.455 206.263L290.757 208.464L289.587 208.099Z" fill="url(#paint26_radial_1038_5099)"/>
<path style="mix-blend-mode:screen" d="M156.149 282.42L157.349 282.663C157.713 282.723 158.154 282.814 158.655 282.936C159.582 283.133 160.721 283.406 162.058 283.543C162.316 283.558 162.605 283.589 162.893 283.619L162.787 284.833C162.498 284.803 162.225 284.788 161.952 284.757C160.524 284.606 159.339 284.332 158.382 284.12C157.911 284.014 157.485 283.923 157.121 283.862L155.89 283.604L156.149 282.405V282.42ZM167.481 284.12C168.21 284.196 168.985 284.287 169.775 284.363L169.653 285.577C168.864 285.501 168.089 285.425 167.344 285.334L167.481 284.12ZM174.332 284.681C176.018 284.757 177.614 284.757 179.209 284.712C180.621 284.712 182.049 284.712 183.508 284.651L183.553 285.866C182.065 285.926 180.621 285.941 179.224 285.926C177.629 285.987 176.003 285.972 174.272 285.911L174.317 284.681H174.332ZM186.956 284.469C189.204 284.317 191.513 284.089 193.807 283.801L193.959 285.015C191.635 285.304 189.311 285.532 187.032 285.683L186.956 284.469ZM198.349 283.133C199.094 283.012 199.853 282.875 200.613 282.738L200.841 283.938C200.081 284.089 199.322 284.211 198.547 284.348L198.349 283.133ZM205.109 281.828C208.117 281.16 211.11 280.37 213.996 279.505L214.345 280.674C211.429 281.554 208.421 282.359 205.368 283.027L205.109 281.828ZM217.277 278.443C219.45 277.714 221.622 276.909 223.734 276.044L224.189 277.183C222.063 278.048 219.86 278.868 217.672 279.611L217.277 278.458V278.443ZM227.926 274.223C228.549 273.934 229.157 273.646 229.764 273.342L229.962 273.236L230.539 274.314L230.311 274.435C229.673 274.754 229.05 275.042 228.428 275.331L227.911 274.223H227.926ZM234.079 271.096C236.995 269.608 239.593 268.227 241.993 266.542L242.692 267.544C240.231 269.289 237.588 270.686 234.625 272.189L234.063 271.096H234.079ZM244.91 264.644L247.994 262.64L250.5 260.652L251.26 261.608L248.085 264.037L245.593 265.661L244.925 264.644H244.91ZM254.131 257.813C254.738 257.343 255.331 256.857 255.893 256.371L256.683 257.297C256.09 257.798 255.498 258.299 254.875 258.77L254.131 257.798V257.813ZM259.281 253.29C259.858 252.728 260.42 252.182 260.997 251.635C261.62 251.028 262.228 250.436 262.835 249.859L265.023 247.749C265.281 247.476 265.539 247.157 265.813 246.854L266.739 247.643C266.466 247.962 266.177 248.28 265.889 248.599L263.686 250.74C263.078 251.316 262.471 251.908 261.863 252.5C261.301 253.062 260.724 253.609 260.146 254.17L259.296 253.29H259.281ZM268.031 244.212L270.507 241.313C271.175 240.599 271.813 239.825 272.482 238.96L273.454 239.689C272.77 240.599 272.102 241.389 271.418 242.117L268.972 245.002L268.046 244.212H268.031ZM275.11 235.211C275.505 234.634 275.9 234.057 276.295 233.526L276.431 233.328L277.434 234.042L277.282 234.239C276.887 234.786 276.492 235.332 276.112 235.909L275.11 235.211ZM279.029 229.533C279.576 228.683 280.001 227.955 280.32 227.287L283.525 221.534L284.589 222.126L281.399 227.848C281.064 228.516 280.624 229.291 280.047 230.186L279.014 229.533H279.029Z" fill="url(#paint27_radial_1038_5099)"/>
<path style="mix-blend-mode:screen" d="M149.24 280.99L148.991 282.178L153.734 283.17L153.983 281.982L149.24 280.99Z" fill="url(#paint28_radial_1038_5099)"/>
<path style="mix-blend-mode:screen" d="M39.8007 134.341L41.1071 134.614L40.0134 139.866L38.7069 139.593L39.8007 134.341ZM37.6132 144.861L38.9348 145.119L38.8588 145.453L38.3423 150.386L37.0055 150.249L37.6132 144.845V144.861ZM36.4435 155.593L37.7803 155.729L37.5372 158.067C37.4309 158.917 37.3853 159.813 37.3701 161.027H36.0333C36.0333 159.752 36.0941 158.811 36.2156 157.915L36.4587 155.593H36.4435ZM36.0029 166.386H37.3397V171.759H36.0029V166.386ZM36.3219 177.163L37.6588 177.042L38.1601 182.355L36.8232 182.491L36.3219 177.163ZM37.3701 187.895L38.6917 187.668C38.8133 188.366 38.95 189.079 39.1019 189.778C39.2082 190.324 39.3298 190.87 39.4209 191.432L39.7095 192.92L38.3879 193.178L38.0993 191.675C37.993 191.129 37.8866 190.582 37.7803 190.036C37.6284 189.307 37.4917 188.594 37.3701 187.88V187.895ZM39.4209 198.46L40.7425 198.202L41.2742 200.904C41.4869 201.694 41.7148 202.529 41.9578 203.363L40.6666 203.728C40.4235 202.878 40.1957 202.043 39.9678 201.193L39.4361 198.445L39.4209 198.46ZM42.2009 208.904L43.4769 208.494C44.0086 210.179 44.5859 211.864 45.1783 213.564L43.9175 214.004C43.3098 212.304 42.7326 210.589 42.2009 208.889V208.904ZM45.8163 219.075L47.062 218.574C47.7152 220.228 48.3836 221.883 49.0976 223.522L47.8671 224.053C47.1531 222.399 46.4695 220.729 45.8163 219.075ZM50.0698 228.972L51.2851 228.41C52.0447 230.019 52.8346 231.613 53.6397 233.207L52.4396 233.829C51.6193 232.22 50.8294 230.611 50.0546 228.987L50.0698 228.972ZM55.0221 238.596L56.1766 237.913L56.602 238.672C57.3615 239.931 58.1515 241.207 58.9566 242.466L57.8324 243.195C57.0121 241.935 56.2222 240.645 55.4474 239.355L55.0221 238.611V238.596ZM60.8403 247.673L61.9492 246.899C62.967 248.371 64.0152 249.813 65.0786 251.24L64 252.045C62.9214 250.603 61.8733 249.146 60.8403 247.673ZM67.2813 256.31L68.3294 255.476C69.4384 256.872 70.5777 258.238 71.7322 259.604L70.7144 260.47C69.5447 259.104 68.4054 257.722 67.2813 256.31ZM74.2843 264.508L75.2717 263.597C76.487 264.917 77.7023 266.223 78.948 267.483L77.9909 268.424C76.7453 267.149 75.5148 265.843 74.2843 264.508ZM81.895 272.204L82.7609 271.187L86.8473 274.663L85.9814 275.68L81.895 272.204ZM90.0678 279.171L90.9489 278.154C91.6021 278.716 92.2401 279.262 92.9237 279.763L95.1872 281.327L94.4276 282.435L92.149 280.856C91.435 280.31 90.7666 279.748 90.083 279.171H90.0678ZM98.8178 285.501L99.5774 284.393L103.937 287.399L103.284 288.567L102.524 288.066L98.7875 285.471L98.8178 285.501ZM107.993 291.209L108.646 290.04L110.94 291.315C111.761 291.74 112.551 292.211 113.34 292.651L112.672 293.82C111.897 293.379 111.107 292.924 110.287 292.499L107.978 291.209H107.993ZM117.533 296.279L118.065 295.049L123.002 297.174L122.47 298.404L117.533 296.264V296.279ZM127.392 300.544L127.924 299.315L129.23 299.876L132.922 301.045L132.512 302.32L128.759 301.121L127.377 300.529L127.392 300.544ZM137.646 303.96L138.056 302.685L143.176 304.309L142.765 305.584L137.646 303.96Z" fill="url(#paint29_radial_1038_5099)"/>
<path style="mix-blend-mode:screen" d="M40.5601 130.728L42.1855 125.613L43.4615 126.023L41.8361 131.138L40.5601 130.728ZM43.8109 120.497L45.011 116.733L45.6035 115.351L46.834 115.883L46.2719 117.188L45.1022 120.877L43.8261 120.467L43.8109 120.497ZM47.7302 110.433L49.857 105.5L51.0874 106.031L48.9607 110.949L47.7302 110.418V110.433ZM52.3331 100.657C52.7736 99.883 53.2294 99.0937 53.6547 98.274L54.946 95.9667L56.1157 96.6194L54.8396 98.9115C54.4143 99.7313 53.9434 100.521 53.5028 101.31L52.3331 100.642V100.657ZM57.5588 91.2913L58.0601 90.5323L60.6426 86.8133L61.7515 87.5723L58.7437 91.9289L57.5588 91.2913ZM63.7112 82.4111L65.2911 80.1342C65.8379 79.4207 66.4 78.7376 66.9773 78.0697L67.9951 78.9502C67.433 79.6029 66.8861 80.2404 66.3848 80.9235L64.8201 83.1853L63.7112 82.4263V82.4111ZM70.4712 73.9864L73.9499 69.903L74.9677 70.7683L71.489 74.8516L70.4712 73.9864ZM77.7325 66.0018C79.0086 64.7571 80.315 63.5275 81.6518 62.298L82.5633 63.2846C81.2416 64.499 79.9352 65.7286 78.6744 66.9581L77.7325 66.0018ZM85.7078 58.7307C87.075 57.5771 88.4574 56.4234 89.8701 55.3001L90.7057 56.3475C89.3081 57.4556 87.9257 58.5941 86.5737 59.7478L85.7078 58.7307ZM94.1388 52.0061C95.582 50.9283 97.0403 49.8809 98.5138 48.8487L99.2734 49.9568C97.7999 50.9739 96.3567 52.0213 94.9288 53.0838L94.1236 52.0061H94.1388ZM102.995 45.8735C104.256 45.0538 105.547 44.2644 106.839 43.4902L107.598 43.0652L108.282 44.2189L107.522 44.6439C106.261 45.4029 104.985 46.1922 103.74 46.9968L103.01 45.8735H102.995ZM112.368 40.4846C113.978 39.6649 115.589 38.8604 117.214 38.1014L117.791 39.3158C116.181 40.0748 114.586 40.8641 112.991 41.6687L112.383 40.4695L112.368 40.4846ZM122.136 35.8852C123.792 35.1717 125.463 34.4886 127.134 33.8359L127.62 35.0807C125.964 35.7334 124.308 36.4013 122.668 37.1147L122.136 35.8852ZM132.192 31.9536C133.894 31.3464 135.61 30.7848 137.312 30.2383L137.722 31.5134C136.036 32.0447 134.334 32.6215 132.648 33.2135L132.208 31.9536H132.192ZM142.477 28.69C143.327 28.4471 144.163 28.2194 145.014 28.0069L147.763 27.4756L148.021 28.781L145.317 29.3123C144.527 29.5249 143.692 29.7526 142.841 29.9954L142.477 28.7052V28.69ZM153.034 26.4434L154.538 26.155C155.1 26.0487 155.632 25.9424 156.179 25.8362C156.893 25.6844 157.622 25.5478 158.336 25.4263L158.564 26.747C157.865 26.8532 157.166 27.005 156.452 27.1416C155.906 27.2479 155.359 27.3542 154.797 27.4604L153.293 27.7488L153.034 26.4282V26.4434ZM163.729 24.8647L169.061 24.3637L169.183 25.6996L163.866 26.2005L163.729 24.8647ZM174.484 24.0298H179.862V25.3808H174.484V24.0298ZM185.239 24.0601C186.5 24.0601 187.442 24.1209 188.338 24.2423L190.663 24.4852L190.526 25.821L188.186 25.5781C187.336 25.4719 186.44 25.4263 185.239 25.4111V24.0753V24.0601ZM195.995 25.0468L201.388 25.654L201.129 26.9747L200.795 26.8988L195.843 26.3826L195.98 25.0468H195.995ZM206.674 26.747L211.93 27.8399L211.657 29.1454L206.401 28.0524L206.674 26.7318V26.747Z" fill="url(#paint30_radial_1038_5099)"/>
<path style="mix-blend-mode:screen" d="M215.12 29.874L215.53 28.5989L220.65 30.2231L220.239 31.4982L215.12 29.874ZM225.374 33.1224L225.784 31.8473L229.552 33.0465L230.919 33.6386L230.387 34.8681L229.081 34.3065L225.389 33.1224H225.374ZM235.309 36.9933L235.841 35.7637L240.778 37.8889L240.246 39.1185L235.324 36.9781L235.309 36.9933ZM244.955 41.5169L245.624 40.348C246.398 40.7882 247.188 41.2436 248.009 41.6687L250.318 42.9438L249.665 44.1278L247.371 42.8527C246.566 42.4276 245.76 41.9571 244.97 41.5017L244.955 41.5169ZM254.359 46.769L254.997 45.585L255.756 46.086L259.493 48.6665L258.718 49.7746L254.359 46.769ZM263.124 52.841L263.899 51.7328L266.177 53.3267C266.891 53.858 267.56 54.4348 268.243 55.0117L267.362 56.0287C266.709 55.4671 266.071 54.9206 265.387 54.4196L263.124 52.8561V52.841ZM271.448 59.5049L272.314 58.4878L276.401 61.964L275.535 62.981L271.448 59.5049ZM279.348 66.6849L280.305 65.7438C281.551 67.0188 282.781 68.3243 284.011 69.6601L283.024 70.5709C281.809 69.2503 280.593 67.9448 279.348 66.6849ZM286.564 74.5784L287.581 73.7131C288.751 75.0641 289.89 76.4607 291.015 77.8572L289.966 78.6921C288.857 77.2955 287.718 75.9142 286.564 74.5632V74.5784ZM293.232 82.9424L294.311 82.1379C295.39 83.58 296.438 85.0372 297.456 86.5097L296.347 87.2687C295.329 85.7962 294.281 84.3541 293.217 82.9272L293.232 82.9424ZM299.339 91.7163L300.463 90.9877C301.284 92.2476 302.074 93.5379 302.848 94.8282L303.274 95.5872L302.119 96.2702L301.694 95.5113C300.934 94.2513 300.144 92.9762 299.339 91.7163ZM304.641 100.976L305.841 100.369C306.661 101.978 307.451 103.587 308.226 105.211L307.011 105.788C306.251 104.179 305.461 102.57 304.656 100.991L304.641 100.976ZM309.213 110.645L310.444 110.114C311.158 111.769 311.841 113.439 312.495 115.093L311.249 115.579C310.596 113.924 309.927 112.27 309.213 110.63V110.645ZM313.117 120.603L314.378 120.148C314.986 121.848 315.563 123.548 316.095 125.264L314.804 125.673C314.272 123.988 313.71 122.288 313.102 120.603H313.117ZM316.353 130.804L317.644 130.44C317.887 131.275 318.115 132.125 318.343 132.96L318.875 135.707L317.553 135.965L317.022 133.263C316.809 132.474 316.581 131.624 316.338 130.789L316.353 130.804ZM318.586 141.233L319.908 140.975L320.196 142.477C320.303 143.039 320.409 143.57 320.516 144.117C320.667 144.845 320.804 145.559 320.926 146.272L319.604 146.5C319.483 145.802 319.346 145.104 319.194 144.39C319.088 143.844 318.966 143.297 318.875 142.735L318.586 141.248V141.233ZM320.151 151.828L321.488 151.692L321.989 157.004L320.652 157.126L320.151 151.813V151.828ZM320.971 162.424H322.323L322.308 167.797H320.971L320.986 162.424H320.971ZM320.941 173.156H322.278C322.278 174.416 322.217 175.372 322.095 176.268L321.852 178.59L320.516 178.453L320.759 176.116C320.865 175.266 320.926 174.355 320.926 173.171L320.941 173.156ZM319.953 183.782L321.29 183.918L320.683 189.322L319.361 189.064L319.422 188.73L319.938 183.782H319.953ZM318.282 194.301L319.589 194.574L318.495 199.827L317.189 199.553L318.282 194.301Z" fill="url(#paint31_radial_1038_5099)"/>
<path style="mix-blend-mode:screen" d="M146.654 305.022L151.91 306.115L151.637 307.421L146.381 306.328L146.654 305.007V305.022ZM157.166 307.208L157.501 307.284L162.453 307.8L162.316 309.136L156.908 308.529L157.182 307.208H157.166ZM167.785 308.347L170.124 308.59C170.975 308.696 171.871 308.741 173.072 308.757V310.092C171.811 310.092 170.854 310.032 169.957 309.91L167.633 309.667L167.77 308.331L167.785 308.347ZM178.449 308.787H183.827V310.153H178.449V308.787ZM189.113 308.483L194.43 307.982L194.567 309.318L189.235 309.819L189.113 308.483ZM199.762 307.436C200.461 307.314 201.175 307.178 201.874 307.041C202.421 306.935 202.967 306.814 203.53 306.722L205.018 306.434L205.276 307.755L203.773 308.043C203.211 308.149 202.679 308.256 202.132 308.362C201.418 308.498 200.689 308.65 199.975 308.772L199.747 307.451L199.762 307.436ZM210.29 305.387L212.994 304.855C213.783 304.643 214.619 304.415 215.454 304.187L215.819 305.478C214.968 305.721 214.133 305.948 213.282 306.176L210.533 306.707L210.274 305.387H210.29ZM220.604 302.654C222.29 302.123 223.992 301.546 225.678 300.954L226.134 302.214C224.432 302.821 222.716 303.383 221.014 303.929L220.604 302.654ZM230.691 299.072C232.347 298.434 233.988 297.751 235.643 297.038L236.175 298.267C234.519 298.981 232.848 299.664 231.192 300.317L230.706 299.072H230.691ZM240.52 294.852C242.13 294.093 243.725 293.319 245.32 292.499L245.943 293.683C244.333 294.503 242.722 295.307 241.097 296.066L240.52 294.852ZM250.029 289.964L250.789 289.539C252.05 288.78 253.326 287.991 254.571 287.186L255.301 288.309C254.04 289.129 252.764 289.918 251.457 290.693L250.698 291.118L250.014 289.964H250.029ZM259.022 284.211C260.496 283.194 261.939 282.146 263.367 281.084L264.172 282.162C262.744 283.224 261.271 284.287 259.797 285.319L259.038 284.211H259.022ZM267.605 277.82C269.003 276.712 270.385 275.574 271.737 274.42L272.603 275.437C271.236 276.591 269.854 277.744 268.441 278.868L267.605 277.82ZM275.732 270.883C277.054 269.669 278.361 268.454 279.621 267.21L280.563 268.166C279.287 269.411 277.981 270.64 276.644 271.87L275.732 270.883ZM283.328 263.415L286.807 259.331L287.825 260.196L284.346 264.28L283.328 263.415ZM290.301 255.233C290.863 254.58 291.41 253.942 291.911 253.259L293.476 250.998L294.585 251.757L293.005 254.034C292.473 254.762 291.896 255.43 291.318 256.098L290.301 255.218V255.233ZM296.559 246.595L299.567 242.239L300.752 242.892L300.251 243.651L297.668 247.385L296.559 246.626V246.595ZM302.195 237.548L303.471 235.256C303.897 234.452 304.368 233.632 304.808 232.858L305.978 233.526C305.537 234.3 305.082 235.089 304.656 235.909L303.365 238.201L302.195 237.548ZM307.208 228.137L309.335 223.203L310.566 223.735L308.439 228.668L307.208 228.137ZM311.477 218.285L312.039 216.965L313.209 213.276L314.485 213.686L313.285 217.45L312.692 218.816L311.462 218.285H311.477ZM314.834 208.16L316.46 203.045L317.736 203.455L316.11 208.57L314.834 208.16Z" fill="url(#paint32_radial_1038_5099)"/>
<path style="mix-blend-mode:screen" d="M53.2447 253.183C53.3055 252.925 53.4574 252.713 53.6549 252.576C53.8828 252.44 54.141 252.394 54.4145 252.44C54.6727 252.5 54.9158 252.667 55.0677 252.895L55.6601 253.821C55.7816 253.988 55.8728 254.155 55.9943 254.322C56.1614 254.61 56.3893 254.929 56.6323 255.293C56.9362 255.703 56.8146 256.371 56.3741 256.69C55.9336 256.994 55.3259 256.887 54.9917 256.447C54.7031 256.037 54.4752 255.673 54.2777 255.369C54.1866 255.202 54.0803 255.066 53.9739 254.929L53.3663 253.958C53.1992 253.73 53.1688 253.426 53.2296 253.183H53.2447ZM68.4054 271.703C68.451 271.521 68.5269 271.338 68.6636 271.217C68.8459 271.05 69.089 270.944 69.3776 270.929C69.6511 270.944 69.9093 271.05 70.0916 271.263C70.4714 271.642 70.4562 272.295 70.0612 272.674C69.6814 273.069 69.0434 273.039 68.6485 272.674C68.6181 272.674 68.6333 272.644 68.6333 272.644C68.3902 272.386 68.3142 272.037 68.4054 271.733V271.703ZM87.5917 288.78C87.6221 288.674 87.6828 288.552 87.7284 288.461C87.8955 288.249 88.1234 288.097 88.3968 288.051C88.655 288.006 88.9285 288.051 89.1412 288.188C89.369 288.355 89.6121 288.507 89.9007 288.689L97.6785 294.078C98.8178 294.928 100.048 295.611 101.355 296.355L101.507 296.415C102.768 297.114 103.998 297.812 105.213 298.495L105.456 298.617C106.398 299.148 107.34 299.664 108.267 300.195C109.862 301.091 111.381 301.956 112.87 302.67C114.571 303.383 116.212 304.096 117.761 304.779L120.313 305.872C122.334 306.753 124.202 307.557 125.858 308.271C126.967 308.666 128.045 309.015 128.987 309.288C129.519 309.455 130.035 309.622 130.522 309.774C133.15 310.639 134.669 311.109 134.669 311.109C135.185 311.276 135.459 311.793 135.322 312.309V312.354C135.14 312.885 134.593 313.174 134.061 312.992C134.061 312.992 132.466 312.491 129.899 311.686C129.443 311.534 128.957 311.383 128.44 311.216C127.453 310.927 126.329 310.578 125.114 310.153L125.068 310.108C123.837 309.591 122.546 309.03 121.149 308.423L112.034 304.506C110.409 303.717 108.844 302.806 107.173 301.88C106.307 301.394 105.411 300.893 104.484 300.393C103.785 299.983 103.087 299.603 102.373 299.209L100.383 298.1C99.0913 297.402 97.7545 296.658 96.5088 295.732C94.6555 294.442 92.7718 293.137 90.9185 291.846L88.7766 290.374C88.5487 290.207 88.2753 290.055 88.017 289.873C87.6676 289.645 87.5005 289.205 87.6069 288.795L87.5917 288.78Z" fill="url(#paint33_radial_1038_5099)"/>
<path style="mix-blend-mode:screen" d="M31.2784 128.36C34.7268 115.199 39.9069 102.57 46.6973 90.8055C46.8036 90.5778 47.0163 90.4108 47.2897 90.3501C47.5632 90.2742 47.8366 90.3046 48.0645 90.4412C48.5202 90.6993 48.6873 91.3368 48.4291 91.8074C41.7754 103.39 36.6408 115.867 33.238 128.816L33.1773 129.028C32.3722 132.094 31.6582 135.237 31.0505 138.409V138.591C30.9746 138.91 30.8986 139.214 30.8379 139.533C30.7163 140.109 30.215 140.443 29.653 140.337C29.3947 140.292 29.1668 140.155 29.0149 139.912C28.8782 139.715 28.8174 139.426 28.8478 139.153C28.9086 138.819 28.9997 138.44 29.0757 138.075V138.03C29.6833 134.827 30.4277 131.578 31.2632 128.36H31.2784ZM28.0883 143.737C28.225 143.221 28.7263 142.902 29.2276 142.978C29.7593 143.069 30.1543 143.586 30.0631 144.147V144.178C29.972 144.678 29.4555 145.073 28.9238 144.982C28.3921 144.891 28.0275 144.39 28.0731 143.874C28.0731 143.813 28.0731 143.768 28.0731 143.737H28.0883ZM26.3413 164.685C26.4628 164.245 26.873 163.926 27.3135 163.942C27.587 163.942 27.8452 164.048 28.0427 164.245C28.2098 164.427 28.3161 164.685 28.3313 164.959C28.3313 165.52 27.8452 165.976 27.2832 165.961C26.7363 165.961 26.2957 165.475 26.3109 164.928V164.898C26.3109 164.807 26.3109 164.761 26.3413 164.685ZM28.1035 190.309C28.2098 189.929 28.5288 189.641 28.939 189.58C29.1972 189.535 29.4555 189.611 29.6681 189.747C29.8808 189.914 30.0327 190.157 30.0783 190.415C30.1998 191.22 30.3214 192.009 30.4581 192.783C32.7367 207.674 37.5979 219.469 41.1374 228.076L41.7906 229.7V229.731C43.1122 232.463 44.3579 234.816 45.3605 236.713C45.7403 237.396 46.0745 238.034 46.3631 238.611V238.641C46.6061 239.081 46.4087 239.734 45.9226 239.962C45.4364 240.22 44.8288 240.007 44.5705 239.522C44.2819 238.945 43.9477 238.338 43.5983 237.655C42.5805 235.727 41.3197 233.343 39.9525 230.505V230.474C39.6942 229.882 39.4512 229.321 39.2233 228.729C35.6686 220.061 30.7923 208.175 28.4832 193.117C28.3313 192.297 28.2098 191.523 28.0883 190.704C28.0731 190.567 28.0883 190.43 28.1187 190.294L28.1035 190.309ZM61.2503 69.9485C61.2807 69.8119 61.3718 69.6753 61.463 69.5538C61.6301 69.3413 61.8883 69.2199 62.1466 69.2047C62.42 69.2047 62.6935 69.2654 62.8909 69.4324C63.3011 69.7967 63.3467 70.4343 63.0125 70.8593C62.8454 71.0566 62.5871 71.1933 62.3441 71.2084C62.0554 71.2388 61.7972 71.1477 61.5997 70.9807C61.3111 70.7379 61.1592 70.3432 61.2655 69.9485H61.2503ZM75.8033 54.7384C75.8641 54.5259 75.9552 54.3589 76.1071 54.2375C76.5021 53.8732 77.1401 53.8883 77.5351 54.2982C77.8693 54.6929 77.8693 55.3608 77.4743 55.7251C77.0642 56.0894 76.411 56.059 76.0464 55.6644C75.8033 55.4063 75.7274 55.0572 75.8185 54.7384H75.8033ZM79.3124 51.6417C79.3732 51.4292 79.4643 51.2622 79.6163 51.1104C85.8902 45.7064 92.6046 40.8641 99.5165 36.6593C107.142 31.9688 115.33 27.9309 123.868 24.6369C124.111 24.5459 124.399 24.5307 124.642 24.6369C124.886 24.7584 125.083 24.9405 125.159 25.1834C125.356 25.6843 125.083 26.3067 124.597 26.504C116.196 29.7373 108.115 33.7296 100.565 38.3594C93.7591 42.4883 87.1358 47.3003 80.9227 52.6436C80.71 52.8106 80.467 52.9168 80.1935 52.8713C79.9201 52.8713 79.677 52.7347 79.5099 52.5222C79.2972 52.2793 79.2213 51.9453 79.2972 51.6265L79.3124 51.6417ZM46.6669 242.967C46.7429 242.709 46.91 242.451 47.1682 242.315C47.6543 242.057 48.262 242.269 48.5202 242.755C48.7633 243.21 48.5658 243.848 48.0797 244.106C47.6088 244.334 47.0163 244.151 46.7429 243.696C46.7429 243.696 46.7125 243.696 46.7277 243.666C46.6213 243.438 46.6061 243.18 46.6669 242.952V242.967ZM147.946 18.0793C148.037 17.715 148.34 17.4265 148.72 17.3658C149.267 17.2596 149.799 17.6239 149.905 18.14C150.012 18.6713 149.647 19.2178 149.13 19.324C148.568 19.4303 148.052 19.066 147.946 18.5499C147.9 18.3981 147.915 18.2311 147.946 18.0793ZM168.788 15.271C168.894 14.846 169.259 14.5576 169.669 14.5272C169.957 14.4969 170.216 14.5879 170.413 14.7549C170.626 14.9219 170.747 15.1799 170.762 15.4228C170.808 15.9693 170.383 16.4702 169.836 16.5158C169.836 16.5158 169.805 16.5158 169.805 16.5309C169.562 16.5309 169.304 16.455 169.122 16.2881C168.924 16.0907 168.788 15.863 168.757 15.5898C168.757 15.4835 168.757 15.3621 168.788 15.2558V15.271ZM173.451 15.0585C173.573 14.6031 173.983 14.3147 174.454 14.3147C176.034 14.3147 177.568 14.3147 179.042 14.3147H182.232C182.657 14.3147 183.052 14.3451 183.477 14.3451C185.832 14.3451 188.065 14.3451 190.116 14.6487L200.947 15.7871C202.39 15.9086 203.362 16.0907 203.909 16.2273L204.335 16.3184C204.654 16.3943 204.806 16.4095 204.882 16.4247C205.14 16.5006 205.352 16.6372 205.52 16.8649C205.656 17.0622 205.717 17.3658 205.656 17.6239C205.535 18.1704 205.003 18.5043 204.487 18.3981C204.487 18.3981 204.137 18.3373 203.484 18.2007C202.937 18.0641 202.041 17.8668 200.78 17.7909C198.729 17.5783 195.888 17.2899 192.319 16.8953L189.858 16.6372C187.944 16.3336 185.695 16.3184 183.295 16.3336H180.606C178.662 16.3032 176.611 16.3032 174.454 16.2881H174.423C173.877 16.2881 173.436 15.8327 173.436 15.2862C173.436 15.1951 173.436 15.1192 173.436 15.0433L173.451 15.0585Z" fill="url(#paint34_radial_1038_5099)"/>
<path style="mix-blend-mode:screen" d="M222.989 21.8743C222.989 21.8743 222.989 21.8439 222.989 21.8287C223.156 21.2975 223.734 20.9939 224.25 21.1912C224.25 21.1912 224.372 21.2216 224.645 21.2975L228.412 22.5118C228.868 22.6485 229.369 22.8154 229.871 22.9672C230.873 23.2556 231.982 23.6048 233.198 24.045L233.243 24.0905C235.021 24.8647 237.011 25.7148 239.213 26.6559C240.383 27.1568 241.598 27.7033 242.874 28.2498L246.277 29.6919C247.902 30.4812 249.498 31.392 251.169 32.3331C252.034 32.8189 252.931 33.3198 253.842 33.8056C255.149 34.5342 256.455 35.2628 257.792 36.0066L257.959 36.0977C259.25 36.796 260.587 37.5398 261.833 38.4809L269.535 43.8242C269.808 43.976 270.036 44.143 270.294 44.3252C270.75 44.5984 270.856 45.2663 270.568 45.7217C270.249 46.1619 269.641 46.2833 269.17 45.9949C268.942 45.8279 268.714 45.6761 268.471 45.5092L268.046 45.2359C265.57 43.5358 263.109 41.8053 260.648 40.1052C259.524 39.2248 258.232 38.5265 256.896 37.7827H256.82C256.121 37.3576 255.407 36.9781 254.708 36.5683L252.885 35.5664C251.913 35.0351 251.001 34.519 250.075 34.0029C248.449 33.1073 246.961 32.2421 245.457 31.5134L238.044 28.3257C236.023 27.4604 234.155 26.6407 232.484 25.9273C231.359 25.5326 230.296 25.1835 229.339 24.9102C228.807 24.7433 228.321 24.5915 227.82 24.4245C225.207 23.5744 223.718 23.1342 223.688 23.119C223.187 22.9369 222.868 22.4056 223.004 21.8895L222.989 21.8743ZM287.961 61.964C288.007 61.7819 288.098 61.6453 288.219 61.5086C288.417 61.3113 288.69 61.2202 288.933 61.2202C289.207 61.2202 289.465 61.3265 289.663 61.5238C290.027 61.9337 290.027 62.5864 289.617 62.9507C289.435 63.1177 289.177 63.224 288.903 63.2391C288.63 63.224 288.371 63.1329 288.204 62.9204C287.946 62.6623 287.87 62.3132 287.961 61.964ZM301.512 78.0546C301.572 77.8117 301.709 77.6144 301.922 77.4778C302.362 77.1742 303 77.2804 303.319 77.7358C303.578 78.1153 303.805 78.4493 304.003 78.7528C304.125 78.9502 304.216 79.1172 304.322 79.2538L304.93 80.2101C305.233 80.6503 305.082 81.303 304.641 81.6066C304.17 81.8951 303.547 81.7736 303.259 81.3031L302.636 80.3619C302.545 80.1949 302.423 80.028 302.302 79.861C302.119 79.5574 301.907 79.2386 301.664 78.8895C301.496 78.6618 301.436 78.3582 301.512 78.0698V78.0546Z" fill="url(#paint35_radial_1038_5099)"/>
<path style="mix-blend-mode:screen" d="M152.64 316.513C152.776 315.967 153.278 315.648 153.809 315.769C153.84 315.769 154.174 315.83 154.842 315.982C155.328 316.119 156.21 316.286 157.546 316.392C160.053 316.665 163.729 317.045 168.438 317.53C170.337 317.834 172.525 317.819 174.849 317.849C175.244 317.849 175.654 317.849 176.079 317.849C178.525 317.849 181.123 317.864 183.872 317.895C184.146 317.895 184.404 318.001 184.571 318.183C184.769 318.38 184.875 318.623 184.89 318.897C184.89 319.428 184.404 319.883 183.872 319.914H183.295C180.743 319.868 178.328 319.883 176.079 319.868C175.639 319.868 175.198 319.868 174.743 319.853C172.403 319.853 170.216 319.853 168.18 319.549L157.349 318.396C155.966 318.289 154.979 318.107 154.387 317.955L153.931 317.864C153.642 317.788 153.475 317.773 153.43 317.758H153.399C152.868 317.637 152.518 317.105 152.64 316.544V316.513ZM187.564 318.38C187.67 317.971 188.035 317.667 188.445 317.637C188.703 317.591 188.992 317.697 189.189 317.864C189.387 318.062 189.523 318.289 189.539 318.563C189.599 319.079 189.159 319.595 188.627 319.625C188.08 319.686 187.579 319.276 187.533 318.73C187.533 318.623 187.533 318.487 187.564 318.38ZM208.406 315.557C208.497 315.193 208.801 314.919 209.181 314.844C209.454 314.783 209.743 314.844 209.955 314.995C210.198 315.147 210.335 315.375 210.366 315.633C210.502 316.164 210.107 316.711 209.591 316.817C209.317 316.893 209.059 316.817 208.816 316.68C208.603 316.544 208.436 316.301 208.406 316.043C208.391 315.906 208.376 315.724 208.406 315.572V315.557ZM233.107 308.362C233.183 308.043 233.426 307.8 233.729 307.694C242.145 304.43 250.212 300.438 257.731 295.808C264.537 291.71 271.13 286.882 277.373 281.524C277.799 281.16 278.421 281.22 278.786 281.615C279.151 282.04 279.105 282.693 278.68 283.057C272.36 288.476 265.676 293.334 258.779 297.523C251.154 302.214 242.966 306.252 234.428 309.546C233.927 309.743 233.334 309.5 233.137 308.984C233.061 308.772 233.046 308.574 233.107 308.362ZM309.7 90.6992C309.776 90.4108 309.943 90.1831 310.201 90.0464C310.429 89.9402 310.718 89.8947 310.976 89.9706C311.234 90.0616 311.432 90.2286 311.568 90.4867V90.517C311.811 90.9572 311.614 91.61 311.128 91.8377C310.642 92.0957 310.034 91.8832 309.776 91.3974C309.669 91.1697 309.654 90.9269 309.715 90.684L309.7 90.6992ZM311.857 94.8433C311.918 94.5852 312.1 94.3271 312.358 94.2057C312.875 93.9476 313.467 94.1298 313.71 94.6459C314.029 95.2531 314.379 95.9058 314.774 96.6496C315.776 98.5471 317.022 100.9 318.343 103.663V103.708C318.602 104.27 318.814 104.816 319.057 105.408C322.642 114.091 327.519 125.977 329.843 141.066C329.965 141.84 330.086 142.66 330.208 143.464C330.299 143.98 329.904 144.527 329.372 144.603C328.825 144.678 328.309 144.329 328.233 143.783C328.111 142.978 327.99 142.189 327.823 141.4C325.544 126.508 320.713 114.729 317.159 106.137L316.505 104.528C315.169 101.765 313.908 99.382 312.905 97.4845C312.556 96.8166 312.221 96.1639 311.933 95.5871H311.902C311.796 95.3594 311.781 95.1013 311.842 94.8736L311.857 94.8433ZM280.579 278.928C280.624 278.746 280.73 278.579 280.867 278.442C281.262 278.078 281.9 278.109 282.265 278.503C282.629 278.913 282.599 279.566 282.219 279.93C281.824 280.294 281.156 280.264 280.791 279.869C280.548 279.611 280.487 279.262 280.563 278.928H280.579ZM295.086 263.718C295.132 263.566 295.192 263.445 295.268 263.323C295.466 263.126 295.694 262.989 295.967 262.959C296.225 262.944 296.484 263.005 296.681 263.202C297.091 263.536 297.167 264.189 296.803 264.629V264.659C296.635 264.841 296.377 264.963 296.134 264.978C295.876 264.993 295.618 264.932 295.42 264.765C295.101 264.523 294.98 264.098 295.086 263.733V263.718ZM309.776 242.618C309.791 242.542 309.852 242.451 309.867 242.375C318.146 227.97 324.07 212.289 327.23 195.773C327.306 195.409 327.382 195.014 327.443 194.635C327.534 194.073 328.081 193.709 328.628 193.83C329.159 193.922 329.539 194.468 329.433 194.984C329.372 195.197 329.357 195.379 329.311 195.561C329.281 195.773 329.235 195.956 329.22 196.138C326.03 212.729 320.014 228.774 311.629 243.377C311.34 243.848 310.733 244.03 310.262 243.742C309.852 243.514 309.669 243.058 309.776 242.618ZM330.041 168.996C330.162 168.526 330.557 168.207 331.028 168.222C331.575 168.222 332.046 168.708 332 169.254C332.015 169.816 331.544 170.241 330.998 170.241C330.435 170.241 330.01 169.786 330.01 169.224C330.01 169.133 330.025 169.057 330.041 168.981V168.996ZM328.263 189.96C328.4 189.444 328.901 189.125 329.402 189.201C329.934 189.292 330.329 189.808 330.238 190.369C330.177 190.916 329.63 191.295 329.068 191.204C328.537 191.113 328.142 190.597 328.233 190.051C328.233 190.02 328.233 189.99 328.248 189.975L328.263 189.96Z" fill="url(#paint36_radial_1038_5099)"/>
<defs>
<radialGradient id="paint0_radial_1038_5099" cx="0" cy="0" r="1" gradientUnits="userSpaceOnUse" gradientTransform="translate(151.243 148.525) rotate(-89.1694) scale(153.818 154.535)">
<stop stop-color="#006363"/>
<stop offset="0.05" stop-color="#005757"/>
<stop offset="0.22" stop-color="#003838"/>
<stop offset="0.39" stop-color="#001F1F"/>
<stop offset="0.58" stop-color="#000D0D"/>
<stop offset="0.77" stop-color="#000303"/>
<stop offset="1"/>
</radialGradient>
<radialGradient id="paint1_radial_1038_5099" cx="0" cy="0" r="1" gradientUnits="userSpaceOnUse" gradientTransform="translate(151.243 148.525) rotate(-89.1694) scale(78.577 78.9431)">
<stop stop-color="#006363"/>
<stop offset="0.05" stop-color="#005757"/>
<stop offset="0.22" stop-color="#003838"/>
<stop offset="0.39" stop-color="#001F1F"/>
<stop offset="0.58" stop-color="#000D0D"/>
<stop offset="0.77" stop-color="#000303"/>
<stop offset="1"/>
</radialGradient>
<radialGradient id="paint2_radial_1038_5099" cx="0" cy="0" r="1" gradientUnits="userSpaceOnUse" gradientTransform="translate(130.55 153.476) rotate(-89.1736) scale(67.0221 70.4869)">
<stop stop-color="#006A6A"/>
<stop offset="0.12" stop-color="#004549"/>
<stop offset="0.24" stop-color="#002C2F"/>
<stop offset="0.38" stop-color="#001A15"/>
<stop offset="0.53" stop-color="#000B09"/>
<stop offset="0.72" stop-color="#000202"/>
<stop offset="1"/>
</radialGradient>
<radialGradient id="paint3_radial_1038_5099" cx="0" cy="0" r="1" gradientUnits="userSpaceOnUse" gradientTransform="translate(228 236) rotate(-88.9212) scale(80.5536 84.7179)">
<stop stop-color="#00646A"/>
<stop offset="0.12" stop-color="#004949"/>
<stop offset="0.24" stop-color="#002C2F"/>
<stop offset="0.38" stop-color="#001A15"/>
<stop offset="0.53" stop-color="#000B09"/>
<stop offset="0.72" stop-color="#000202"/>
<stop offset="1"/>
</radialGradient>
<radialGradient id="paint4_radial_1038_5099" cx="0" cy="0" r="1" gradientUnits="userSpaceOnUse" gradientTransform="translate(180.71 170.769) rotate(0.241815) scale(291.793 225.461)">
<stop offset="0.27" stop-color="#00BDB2"/>
<stop offset="0.34" stop-color="#00B4B4"/>
<stop offset="0.47" stop-color="#00929B"/>
<stop offset="0.63" stop-color="#005F74"/>
<stop offset="0.81" stop-color="#00393D"/>
<stop offset="1"/>
</radialGradient>
<radialGradient id="paint5_radial_1038_5099" cx="0" cy="0" r="1" gradientUnits="userSpaceOnUse" gradientTransform="translate(125.496 189.486) rotate(99.5523) scale(315.396 210.279)">
<stop offset="0.22" stop-color="#00F0FF"/>
<stop offset="0.31" stop-color="#00AEC6"/>
<stop offset="0.41" stop-color="#007892"/>
<stop offset="0.51" stop-color="#005965"/>
<stop offset="0.61" stop-color="#003D41"/>
<stop offset="0.71" stop-color="#001724"/>
<stop offset="0.81" stop-color="#000A10"/>
<stop offset="0.9" stop-color="#000204"/>
<stop offset="1"/>
</radialGradient>
<radialGradient id="paint6_radial_1038_5099" cx="0" cy="0" r="1" gradientUnits="userSpaceOnUse" gradientTransform="translate(261.231 219.42) rotate(108.536) scale(266.386 327.113)">
<stop offset="0.22" stop-color="#00F0FF"/>
<stop offset="0.31" stop-color="#00AEC6"/>
<stop offset="0.41" stop-color="#007892"/>
<stop offset="0.51" stop-color="#005965"/>
<stop offset="0.61" stop-color="#003D41"/>
<stop offset="0.71" stop-color="#001724"/>
<stop offset="0.81" stop-color="#000A10"/>
<stop offset="0.9" stop-color="#000204"/>
<stop offset="1"/>
</radialGradient>
<radialGradient id="paint7_radial_1038_5099" cx="0" cy="0" r="1" gradientUnits="userSpaceOnUse" gradientTransform="translate(119.729 193.268) rotate(98.602) scale(367.421 221.376)">
<stop offset="0.22" stop-color="#00F0FF"/>
<stop offset="0.31" stop-color="#00AEC6"/>
<stop offset="0.41" stop-color="#007892"/>
<stop offset="0.51" stop-color="#005965"/>
<stop offset="0.61" stop-color="#003D41"/>
<stop offset="0.71" stop-color="#001724"/>
<stop offset="0.81" stop-color="#000A10"/>
<stop offset="0.9" stop-color="#000204"/>
<stop offset="1"/>
</radialGradient>
<radialGradient id="paint8_radial_1038_5099" cx="0" cy="0" r="1" gradientUnits="userSpaceOnUse" gradientTransform="translate(71.3025 204.348) rotate(96.6211) scale(194.909 90.95)">
<stop offset="0.22" stop-color="#00F0FF"/>
<stop offset="0.31" stop-color="#00AEC6"/>
<stop offset="0.41" stop-color="#007892"/>
<stop offset="0.51" stop-color="#005965"/>
<stop offset="0.61" stop-color="#003D41"/>
<stop offset="0.71" stop-color="#001724"/>
<stop offset="0.81" stop-color="#000A10"/>
<stop offset="0.9" stop-color="#000204"/>
<stop offset="1"/>
</radialGradient>
<radialGradient id="paint9_radial_1038_5099" cx="0" cy="0" r="1" gradientUnits="userSpaceOnUse" gradientTransform="translate(246.19 88.3666) rotate(127.293) scale(202.466 397.6)">
<stop offset="0.22" stop-color="#00F0FF"/>
<stop offset="0.31" stop-color="#00AEC6"/>
<stop offset="0.41" stop-color="#007892"/>
<stop offset="0.51" stop-color="#005965"/>
<stop offset="0.61" stop-color="#003D41"/>
<stop offset="0.71" stop-color="#001724"/>
<stop offset="0.81" stop-color="#000A10"/>
<stop offset="0.9" stop-color="#000204"/>
<stop offset="1"/>
</radialGradient>
<radialGradient id="paint10_radial_1038_5099" cx="0" cy="0" r="1" gradientUnits="userSpaceOnUse" gradientTransform="translate(237.131 51.3989) rotate(134.863) scale(92.4367 188.297)">
<stop offset="0.22" stop-color="#00F0FF"/>
<stop offset="0.31" stop-color="#00AEC6"/>
<stop offset="0.41" stop-color="#007892"/>
<stop offset="0.51" stop-color="#005965"/>
<stop offset="0.61" stop-color="#003D41"/>
<stop offset="0.71" stop-color="#001724"/>
<stop offset="0.81" stop-color="#000A10"/>
<stop offset="0.9" stop-color="#000204"/>
<stop offset="1"/>
</radialGradient>
<radialGradient id="paint11_radial_1038_5099" cx="0" cy="0" r="1" gradientUnits="userSpaceOnUse" gradientTransform="translate(265.813 221.974) rotate(108.47) scale(289.671 354.623)">
<stop offset="0.22" stop-color="#00F0FF"/>
<stop offset="0.31" stop-color="#00AEC6"/>
<stop offset="0.41" stop-color="#007892"/>
<stop offset="0.51" stop-color="#005965"/>
<stop offset="0.61" stop-color="#003D41"/>
<stop offset="0.71" stop-color="#001724"/>
<stop offset="0.81" stop-color="#000A10"/>
<stop offset="0.9" stop-color="#000204"/>
<stop offset="1"/>
</radialGradient>
<radialGradient id="paint12_radial_1038_5099" cx="0" cy="0" r="1" gradientUnits="userSpaceOnUse" gradientTransform="translate(284.735 255.958) rotate(108.9) scale(155.064 193.604)">
<stop offset="0.22" stop-color="#00F0FF"/>
<stop offset="0.31" stop-color="#00AEC6"/>
<stop offset="0.41" stop-color="#007892"/>
<stop offset="0.51" stop-color="#005965"/>
<stop offset="0.61" stop-color="#003D41"/>
<stop offset="0.71" stop-color="#001724"/>
<stop offset="0.81" stop-color="#000A10"/>
<stop offset="0.9" stop-color="#000204"/>
<stop offset="1"/>
</radialGradient>
<radialGradient id="paint13_radial_1038_5099" cx="0" cy="0" r="1" gradientUnits="userSpaceOnUse" gradientTransform="translate(147.074 280.645) rotate(22.4498) scale(8.06086 2.75102)">
<stop offset="0.22" stop-color="#00F0FF"/>
<stop offset="0.31" stop-color="#00AEC6"/>
<stop offset="0.41" stop-color="#007892"/>
<stop offset="0.51" stop-color="#005965"/>
<stop offset="0.61" stop-color="#003D41"/>
<stop offset="0.71" stop-color="#001724"/>
<stop offset="0.81" stop-color="#000A10"/>
<stop offset="0.9" stop-color="#000204"/>
<stop offset="1"/>
</radialGradient>
<radialGradient id="paint14_radial_1038_5099" cx="0" cy="0" r="1" gradientUnits="userSpaceOnUse" gradientTransform="translate(136.712 276.377) rotate(124.997) scale(12.9016 24.6955)">
<stop offset="0.22" stop-color="#00F0FF"/>
<stop offset="0.31" stop-color="#00AEC6"/>
<stop offset="0.41" stop-color="#007892"/>
<stop offset="0.51" stop-color="#005965"/>
<stop offset="0.61" stop-color="#003D41"/>
<stop offset="0.71" stop-color="#001724"/>
<stop offset="0.81" stop-color="#000A10"/>
<stop offset="0.9" stop-color="#000204"/>
<stop offset="1"/>
</radialGradient>
<radialGradient id="paint15_radial_1038_5099" cx="0" cy="0" r="1" gradientUnits="userSpaceOnUse" gradientTransform="translate(107.206 213.326) rotate(99.5764) scale(216.25 144.528)">
<stop offset="0.22" stop-color="#00F0FF"/>
<stop offset="0.31" stop-color="#00AEC6"/>
<stop offset="0.41" stop-color="#007892"/>
<stop offset="0.51" stop-color="#005965"/>
<stop offset="0.61" stop-color="#003D41"/>
<stop offset="0.71" stop-color="#001724"/>
<stop offset="0.81" stop-color="#000A10"/>
<stop offset="0.9" stop-color="#000204"/>
<stop offset="1"/>
</radialGradient>
<radialGradient id="paint16_radial_1038_5099" cx="0" cy="0" r="1" gradientUnits="userSpaceOnUse" gradientTransform="translate(64.5922 139.635) rotate(98.3866) scale(8.36833 4.91945)">
<stop offset="0.22" stop-color="#00F0FF"/>
<stop offset="0.31" stop-color="#00AEC6"/>
<stop offset="0.41" stop-color="#007892"/>
<stop offset="0.51" stop-color="#005965"/>
<stop offset="0.61" stop-color="#003D41"/>
<stop offset="0.71" stop-color="#001724"/>
<stop offset="0.81" stop-color="#000A10"/>
<stop offset="0.9" stop-color="#000204"/>
<stop offset="1"/>
</radialGradient>
<radialGradient id="paint17_radial_1038_5099" cx="0" cy="0" r="1" gradientUnits="userSpaceOnUse" gradientTransform="translate(65.9312 134.96) rotate(100.044) scale(8.4077 5.8825)">
<stop offset="0.22" stop-color="#00F0FF"/>
<stop offset="0.31" stop-color="#00AEC6"/>
<stop offset="0.41" stop-color="#007892"/>
<stop offset="0.51" stop-color="#005965"/>
<stop offset="0.61" stop-color="#003D41"/>
<stop offset="0.71" stop-color="#001724"/>
<stop offset="0.81" stop-color="#000A10"/>
<stop offset="0.9" stop-color="#000204"/>
<stop offset="1"/>
</radialGradient>
<radialGradient id="paint18_radial_1038_5099" cx="0" cy="0" r="1" gradientUnits="userSpaceOnUse" gradientTransform="translate(71.4965 122.184) rotate(99.1936) scale(22.2282 14.2831)">
<stop offset="0.22" stop-color="#00F0FF"/>
<stop offset="0.31" stop-color="#00AEC6"/>
<stop offset="0.41" stop-color="#007892"/>
<stop offset="0.51" stop-color="#005965"/>
<stop offset="0.61" stop-color="#003D41"/>
<stop offset="0.71" stop-color="#001724"/>
<stop offset="0.81" stop-color="#000A10"/>
<stop offset="0.9" stop-color="#000204"/>
<stop offset="1"/>
</radialGradient>
<radialGradient id="paint19_radial_1038_5099" cx="0" cy="0" r="1" gradientUnits="userSpaceOnUse" gradientTransform="translate(167.559 83.0298) rotate(123.91) scale(128.759 242.882)">
<stop offset="0.22" stop-color="#00F0FF"/>
<stop offset="0.31" stop-color="#00AEC6"/>
<stop offset="0.41" stop-color="#007892"/>
<stop offset="0.51" stop-color="#005965"/>
<stop offset="0.61" stop-color="#003D41"/>
<stop offset="0.71" stop-color="#001724"/>
<stop offset="0.81" stop-color="#000A10"/>
<stop offset="0.9" stop-color="#000204"/>
<stop offset="1"/>
</radialGradient>
<radialGradient id="paint20_radial_1038_5099" cx="0" cy="0" r="1" gradientUnits="userSpaceOnUse" gradientTransform="translate(207.067 51.9025) rotate(16.5932) scale(8.06124 2.75086)">
<stop offset="0.22" stop-color="#00F0FF"/>
<stop offset="0.31" stop-color="#00AEC6"/>
<stop offset="0.41" stop-color="#007892"/>
<stop offset="0.51" stop-color="#005965"/>
<stop offset="0.61" stop-color="#003D41"/>
<stop offset="0.71" stop-color="#001724"/>
<stop offset="0.81" stop-color="#000A10"/>
<stop offset="0.9" stop-color="#000204"/>
<stop offset="1"/>
</radialGradient>
<radialGradient id="paint21_radial_1038_5099" cx="0" cy="0" r="1" gradientUnits="userSpaceOnUse" gradientTransform="translate(211.759 53.1373) rotate(22.4099) scale(8.06086 2.75105)">
<stop offset="0.22" stop-color="#00F0FF"/>
<stop offset="0.31" stop-color="#00AEC6"/>
<stop offset="0.41" stop-color="#007892"/>
<stop offset="0.51" stop-color="#005965"/>
<stop offset="0.61" stop-color="#003D41"/>
<stop offset="0.71" stop-color="#001724"/>
<stop offset="0.81" stop-color="#000A10"/>
<stop offset="0.9" stop-color="#000204"/>
<stop offset="1"/>
</radialGradient>
<radialGradient id="paint22_radial_1038_5099" cx="0" cy="0" r="1" gradientUnits="userSpaceOnUse" gradientTransform="translate(227.642 58.3113) rotate(124.969) scale(12.8664 24.6192)">
<stop offset="0.22" stop-color="#00F0FF"/>
<stop offset="0.31" stop-color="#00AEC6"/>
<stop offset="0.41" stop-color="#007892"/>
<stop offset="0.51" stop-color="#005965"/>
<stop offset="0.61" stop-color="#003D41"/>
<stop offset="0.71" stop-color="#001724"/>
<stop offset="0.81" stop-color="#000A10"/>
<stop offset="0.9" stop-color="#000204"/>
<stop offset="1"/>
</radialGradient>
<radialGradient id="paint23_radial_1038_5099" cx="0" cy="0" r="1" gradientUnits="userSpaceOnUse" gradientTransform="translate(280.66 131.195) rotate(99.5797) scale(216.227 144.561)">
<stop offset="0.22" stop-color="#00F0FF"/>
<stop offset="0.31" stop-color="#00AEC6"/>
<stop offset="0.41" stop-color="#007892"/>
<stop offset="0.51" stop-color="#005965"/>
<stop offset="0.61" stop-color="#003D41"/>
<stop offset="0.71" stop-color="#001724"/>
<stop offset="0.81" stop-color="#000A10"/>
<stop offset="0.9" stop-color="#000204"/>
<stop offset="1"/>
</radialGradient>
<radialGradient id="paint24_radial_1038_5099" cx="0" cy="0" r="1" gradientUnits="userSpaceOnUse" gradientTransform="translate(294.706 194.935) rotate(98.3867) scale(8.36831 4.91946)">
<stop offset="0.22" stop-color="#00F0FF"/>
<stop offset="0.31" stop-color="#00AEC6"/>
<stop offset="0.41" stop-color="#007892"/>
<stop offset="0.51" stop-color="#005965"/>
<stop offset="0.61" stop-color="#003D41"/>
<stop offset="0.71" stop-color="#001724"/>
<stop offset="0.81" stop-color="#000A10"/>
<stop offset="0.9" stop-color="#000204"/>
<stop offset="1"/>
</radialGradient>
<radialGradient id="paint25_radial_1038_5099" cx="0" cy="0" r="1" gradientUnits="userSpaceOnUse" gradientTransform="translate(293.584 199.625) rotate(100.044) scale(8.40771 5.88249)">
<stop offset="0.22" stop-color="#00F0FF"/>
<stop offset="0.31" stop-color="#00AEC6"/>
<stop offset="0.41" stop-color="#007892"/>
<stop offset="0.51" stop-color="#005965"/>
<stop offset="0.61" stop-color="#003D41"/>
<stop offset="0.71" stop-color="#001724"/>
<stop offset="0.81" stop-color="#000A10"/>
<stop offset="0.9" stop-color="#000204"/>
<stop offset="1"/>
</radialGradient>
<radialGradient id="paint26_radial_1038_5099" cx="0" cy="0" r="1" gradientUnits="userSpaceOnUse" gradientTransform="translate(289.727 213.058) rotate(99.2048) scale(22.2544 14.3167)">
<stop offset="0.22" stop-color="#00F0FF"/>
<stop offset="0.31" stop-color="#00AEC6"/>
<stop offset="0.41" stop-color="#007892"/>
<stop offset="0.51" stop-color="#005965"/>
<stop offset="0.61" stop-color="#003D41"/>
<stop offset="0.71" stop-color="#001724"/>
<stop offset="0.81" stop-color="#000A10"/>
<stop offset="0.9" stop-color="#000204"/>
<stop offset="1"/>
</radialGradient>
<radialGradient id="paint27_radial_1038_5099" cx="0" cy="0" r="1" gradientUnits="userSpaceOnUse" gradientTransform="translate(249.724 256.344) rotate(123.913) scale(128.703 242.787)">
<stop offset="0.22" stop-color="#00F0FF"/>
<stop offset="0.31" stop-color="#00AEC6"/>
<stop offset="0.41" stop-color="#007892"/>
<stop offset="0.51" stop-color="#005965"/>
<stop offset="0.61" stop-color="#003D41"/>
<stop offset="0.71" stop-color="#001724"/>
<stop offset="0.81" stop-color="#000A10"/>
<stop offset="0.9" stop-color="#000204"/>
<stop offset="1"/>
</radialGradient>
<radialGradient id="paint28_radial_1038_5099" cx="0" cy="0" r="1" gradientUnits="userSpaceOnUse" gradientTransform="translate(151.735 281.848) rotate(16.6332) scale(8.06124 2.75092)">
<stop offset="0.22" stop-color="#00F0FF"/>
<stop offset="0.31" stop-color="#00AEC6"/>
<stop offset="0.41" stop-color="#007892"/>
<stop offset="0.51" stop-color="#005965"/>
<stop offset="0.61" stop-color="#003D41"/>
<stop offset="0.71" stop-color="#001724"/>
<stop offset="0.81" stop-color="#000A10"/>
<stop offset="0.9" stop-color="#000204"/>
<stop offset="1"/>
</radialGradient>
<radialGradient id="paint29_radial_1038_5099" cx="0" cy="0" r="1" gradientUnits="userSpaceOnUse" gradientTransform="translate(114.142 226.859) rotate(101.896) scale(290.101 238.392)">
<stop offset="0.22" stop-color="#00F0FF"/>
<stop offset="0.31" stop-color="#00AEC6"/>
<stop offset="0.41" stop-color="#007892"/>
<stop offset="0.51" stop-color="#005965"/>
<stop offset="0.61" stop-color="#003D41"/>
<stop offset="0.71" stop-color="#001724"/>
<stop offset="0.81" stop-color="#000A10"/>
<stop offset="0.9" stop-color="#000204"/>
<stop offset="1"/>
</radialGradient>
<radialGradient id="paint30_radial_1038_5099" cx="0" cy="0" r="1" gradientUnits="userSpaceOnUse" gradientTransform="translate(165.506 81.8977) rotate(118.304) scale(201.664 342.985)">
<stop offset="0.22" stop-color="#00F0FF"/>
<stop offset="0.31" stop-color="#00AEC6"/>
<stop offset="0.41" stop-color="#007892"/>
<stop offset="0.51" stop-color="#005965"/>
<stop offset="0.61" stop-color="#003D41"/>
<stop offset="0.71" stop-color="#001724"/>
<stop offset="0.81" stop-color="#000A10"/>
<stop offset="0.9" stop-color="#000204"/>
<stop offset="1"/>
</radialGradient>
<radialGradient id="paint31_radial_1038_5099" cx="0" cy="0" r="1" gradientUnits="userSpaceOnUse" gradientTransform="translate(293.282 121.109) rotate(101.9) scale(290.08 238.456)">
<stop offset="0.22" stop-color="#00F0FF"/>
<stop offset="0.31" stop-color="#00AEC6"/>
<stop offset="0.41" stop-color="#007892"/>
<stop offset="0.51" stop-color="#005965"/>
<stop offset="0.61" stop-color="#003D41"/>
<stop offset="0.71" stop-color="#001724"/>
<stop offset="0.81" stop-color="#000A10"/>
<stop offset="0.9" stop-color="#000204"/>
<stop offset="1"/>
</radialGradient>
<radialGradient id="paint32_radial_1038_5099" cx="0" cy="0" r="1" gradientUnits="userSpaceOnUse" gradientTransform="translate(271.315 260.913) rotate(118.301) scale(201.66 342.961)">
<stop offset="0.22" stop-color="#00F0FF"/>
<stop offset="0.31" stop-color="#00AEC6"/>
<stop offset="0.41" stop-color="#007892"/>
<stop offset="0.51" stop-color="#005965"/>
<stop offset="0.61" stop-color="#003D41"/>
<stop offset="0.71" stop-color="#001724"/>
<stop offset="0.81" stop-color="#000A10"/>
<stop offset="0.9" stop-color="#000204"/>
<stop offset="1"/>
</radialGradient>
<radialGradient id="paint33_radial_1038_5099" cx="0" cy="0" r="1" gradientUnits="userSpaceOnUse" gradientTransform="translate(113.101 285.176) rotate(114.519) scale(110.458 169.915)">
<stop offset="0.22" stop-color="#00F0FF"/>
<stop offset="0.31" stop-color="#00AEC6"/>
<stop offset="0.41" stop-color="#007892"/>
<stop offset="0.51" stop-color="#005965"/>
<stop offset="0.61" stop-color="#003D41"/>
<stop offset="0.71" stop-color="#001724"/>
<stop offset="0.81" stop-color="#000A10"/>
<stop offset="0.9" stop-color="#000204"/>
<stop offset="1"/>
</radialGradient>
<radialGradient id="paint34_radial_1038_5099" cx="0" cy="0" r="1" gradientUnits="userSpaceOnUse" gradientTransform="translate(157.088 138.518) rotate(104.715) scale(394.012 394.368)">
<stop offset="0.22" stop-color="#00F0FF"/>
<stop offset="0.31" stop-color="#00AEC6"/>
<stop offset="0.41" stop-color="#007892"/>
<stop offset="0.51" stop-color="#005965"/>
<stop offset="0.61" stop-color="#003D41"/>
<stop offset="0.71" stop-color="#001724"/>
<stop offset="0.81" stop-color="#000A10"/>
<stop offset="0.9" stop-color="#000204"/>
<stop offset="1"/>
</radialGradient>
<radialGradient id="paint35_radial_1038_5099" cx="0" cy="0" r="1" gradientUnits="userSpaceOnUse" gradientTransform="translate(282.843 53.888) rotate(114.506) scale(110.459 169.85)">
<stop offset="0.22" stop-color="#00F0FF"/>
<stop offset="0.31" stop-color="#00AEC6"/>
<stop offset="0.41" stop-color="#007892"/>
<stop offset="0.51" stop-color="#005965"/>
<stop offset="0.61" stop-color="#003D41"/>
<stop offset="0.71" stop-color="#001724"/>
<stop offset="0.81" stop-color="#000A10"/>
<stop offset="0.9" stop-color="#000204"/>
<stop offset="1"/>
</radialGradient>
<radialGradient id="paint36_radial_1038_5099" cx="0" cy="0" r="1" gradientUnits="userSpaceOnUse" gradientTransform="translate(283.407 214.186) rotate(104.71) scale(394.161 394.416)">
<stop offset="0.22" stop-color="#00F0FF"/>
<stop offset="0.31" stop-color="#00AEC6"/>
<stop offset="0.41" stop-color="#007892"/>
<stop offset="0.51" stop-color="#005965"/>
<stop offset="0.61" stop-color="#003D41"/>
<stop offset="0.71" stop-color="#001724"/>
<stop offset="0.81" stop-color="#000A10"/>
<stop offset="0.9" stop-color="#000204"/>
<stop offset="1"/>
</radialGradient>
</defs>
</svg>
