<?xml version="1.0" standalone="no"?>
<!DOCTYPE svg PUBLIC "-//W3C//DTD SVG 20010904//EN"
 "http://www.w3.org/TR/2001/REC-SVG-20010904/DTD/svg10.dtd">
<svg version="1.0" xmlns="http://www.w3.org/2000/svg"
 width="700.000000pt" height="700.000000pt" viewBox="0 0 700.000000 700.000000"
 preserveAspectRatio="xMidYMid meet">
<metadata>
Created by potrace 1.14, written by Peter Selinger 2001-2017
</metadata>
<g transform="translate(0.000000,700.000000) scale(0.100000,-0.100000)"
fill="#000000" stroke="none">
<path d="M3279 6676 c-2 -2 -38 -6 -79 -10 -41 -4 -88 -8 -105 -11 -90 -13
-172 -25 -190 -29 -11 -3 -54 -12 -95 -21 -399 -85 -818 -271 -1164 -517 -431
-307 -768 -702 -1008 -1179 -37 -75 -68 -139 -68 -142 0 -4 -11 -30 -24 -59
-41 -89 -135 -374 -151 -456 -1 -9 -8 -35 -13 -57 -6 -22 -13 -53 -16 -70 -3
-16 -7 -39 -9 -50 -3 -11 -10 -56 -16 -100 -7 -44 -14 -93 -16 -110 -26 -182
-26 -587 0 -775 3 -19 10 -62 16 -95 6 -33 12 -71 14 -85 12 -97 83 -361 132
-495 14 -38 32 -88 40 -110 16 -47 15 -45 87 -197 221 -464 532 -846 963
-1180 34 -27 65 -48 70 -48 4 1 52 64 107 142 79 113 95 143 84 149 -95 53
-444 379 -539 503 -195 255 -283 396 -384 617 -122 266 -188 493 -240 829 -20
125 -27 485 -12 622 47 446 179 846 398 1209 199 330 424 576 759 832 266 203
664 385 1030 471 109 26 132 31 209 42 25 4 55 8 66 10 101 19 543 26 670 10
364 -44 669 -134 975 -286 825 -410 1402 -1201 1544 -2115 41 -266 41 -607 0
-865 -30 -192 -107 -478 -163 -605 -5 -11 -19 -45 -31 -75 -30 -73 -122 -257
-154 -309 -14 -22 -26 -43 -26 -46 0 -13 -133 -201 -216 -305 -126 -158 -260
-296 -418 -428 -85 -71 -261 -194 -381 -265 -86 -51 -346 -171 -459 -211 -113
-42 -306 -97 -384 -111 -15 -2 -51 -9 -81 -15 -80 -15 -83 -14 -77 17 3 16 8
46 11 68 14 101 39 219 75 360 29 113 38 148 240 900 352 1309 415 1550 426
1630 3 28 8 53 11 58 6 11 17 160 17 237 -2 309 -120 533 -341 644 -329 165
-698 97 -1151 -211 -91 -62 -109 -72 -98 -54 26 41 28 273 3 349 -67 202 -192
321 -390 371 -316 81 -557 -77 -722 -472 -15 -37 -26 -69 -24 -71 2 -1 26 -10
53 -18 l48 -16 30 65 c66 145 148 247 227 280 74 31 203 -7 246 -74 47 -71 50
-215 8 -378 -8 -33 -16 -67 -18 -75 -2 -8 -53 -202 -115 -430 -61 -228 -113
-424 -115 -435 -3 -11 -19 -69 -35 -130 -17 -60 -33 -118 -35 -127 -2 -10 -15
-59 -29 -110 -26 -98 -55 -203 -61 -228 -2 -8 -40 -150 -84 -315 -44 -164 -77
-303 -73 -307 4 -4 25 -11 47 -16 22 -5 127 -33 234 -62 117 -31 197 -48 203
-42 5 5 24 67 43 138 18 71 76 289 129 484 52 195 118 441 145 545 55 206 131
486 192 712 22 79 39 149 39 156 0 15 102 79 215 135 75 38 202 83 270 97 69
15 231 14 300 -1 91 -20 203 -74 251 -122 119 -119 130 -334 34 -676 -24 -84
-190 -704 -195 -726 -2 -8 -24 -91 -50 -185 -26 -93 -48 -177 -50 -185 -2 -8
-47 -177 -100 -375 -53 -198 -109 -409 -126 -470 -86 -323 -158 -632 -174
-745 -3 -25 -10 -70 -15 -100 -21 -129 -29 -326 -13 -340 4 -4 44 -17 88 -28
142 -36 309 -81 356 -96 28 -9 50 -11 56 -5 7 7 55 17 208 44 17 3 41 8 55 11
14 3 32 7 40 9 8 2 44 11 80 20 36 9 72 18 80 20 35 7 267 88 348 121 105 44
332 156 381 190 20 13 41 24 47 24 7 0 14 4 16 8 2 4 24 20 49 34 60 35 272
190 345 253 414 354 726 787 917 1275 65 166 136 404 161 545 12 63 35 202 40
240 26 191 27 583 1 770 -19 135 -25 173 -47 275 -69 330 -197 661 -370 961
-7 12 -53 84 -102 158 -390 589 -978 1037 -1652 1259 -97 32 -224 68 -264 76
-14 2 -45 9 -70 15 -49 11 -86 18 -139 27 -18 3 -41 7 -50 9 -9 2 -44 6 -76
10 -33 4 -71 9 -85 12 -28 6 -535 14 -541 9z"/>
</g>
</svg>
