<?xml version="1.0" standalone="no"?>
<!DOCTYPE svg PUBLIC "-//W3C//DTD SVG 20010904//EN"
 "http://www.w3.org/TR/2001/REC-SVG-20010904/DTD/svg10.dtd">
<svg version="1.0" xmlns="http://www.w3.org/2000/svg"
 width="700.000000pt" height="700.000000pt" viewBox="0 0 700.000000 700.000000"
 preserveAspectRatio="xMidYMid meet">
<g transform="translate(0.000000,700.000000) scale(0.100000,-0.100000)"
fill="#000000" stroke="none">
<path d="M3328 6415 c-2 -2 -43 -6 -93 -9 -49 -4 -103 -8 -120 -10 -54 -8
-116 -17 -135 -21 -9 -2 -34 -6 -55 -9 -20 -4 -92 -20 -158 -37 -700 -176
-1295 -595 -1698 -1195 -38 -57 -69 -105 -69 -108 0 -2 -18 -33 -40 -69 -164
-271 -297 -663 -349 -1032 -30 -207 -33 -577 -7 -735 2 -14 7 -47 11 -75 10
-79 53 -282 76 -359 140 -479 369 -876 708 -1229 122 -127 383 -343 401 -332
4 3 37 46 71 96 35 50 84 117 108 150 24 33 40 64 35 68 -5 4 -49 39 -99 76
-104 80 -293 266 -381 375 -71 88 -180 244 -219 315 -196 355 -293 653 -331
1020 -10 94 -10 358 -1 469 17 194 72 437 141 625 42 112 152 350 186 401 10
14 37 57 61 95 114 185 347 444 529 589 263 211 582 375 894 461 152 41 253
61 426 81 86 10 356 11 450 2 134 -13 273 -32 302 -43 7 -2 24 -6 38 -9 98
-16 285 -77 434 -141 115 -49 270 -128 297 -151 8 -8 19 -14 23 -14 13 0 196
-129 281 -198 107 -87 275 -257 358 -362 37 -47 71 -90 77 -97 15 -19 115
-174 140 -218 155 -272 256 -555 305 -851 20 -123 28 -221 29 -367 2 -137 -4
-240 -19 -357 -4 -25 -8 -60 -11 -78 -7 -54 -51 -241 -77 -327 -193 -636 -651
-1183 -1244 -1485 -219 -112 -463 -195 -687 -235 l-38 -6 6 48 c12 83 64 299
131 548 36 132 87 323 114 425 27 102 58 219 69 260 39 145 131 486 152 565
197 727 210 787 206 1000 -5 230 -46 345 -166 465 -212 213 -568 233 -921 52
-67 -35 -215 -124 -259 -157 -54 -40 -65 -43 -55 -12 3 12 8 65 11 117 7 184
-61 335 -196 433 -34 25 -126 65 -165 73 -11 2 -33 7 -50 10 -44 10 -148 7
-197 -6 -119 -32 -236 -131 -318 -269 -47 -79 -104 -211 -95 -220 4 -3 24 -11
45 -17 l39 -12 42 85 c103 208 216 275 346 204 33 -18 54 -39 71 -71 22 -42
23 -53 19 -150 -6 -118 -9 -130 -222 -920 -87 -323 -156 -581 -160 -600 -2 -8
-15 -58 -30 -110 -14 -52 -34 -126 -44 -165 -11 -38 -31 -114 -46 -168 -14
-54 -24 -104 -22 -111 3 -7 34 -20 69 -29 34 -9 129 -34 211 -55 81 -22 149
-37 151 -33 2 3 32 110 66 236 34 127 84 313 111 415 49 180 54 201 63 238 3
9 59 222 126 472 139 521 111 467 280 554 137 71 250 105 367 113 111 7 190
-7 289 -52 123 -56 182 -143 191 -285 10 -136 9 -137 -236 -1050 -102 -379
-131 -490 -171 -640 -15 -58 -53 -197 -83 -310 -66 -243 -117 -441 -123 -478
-3 -15 -11 -52 -19 -82 -12 -49 -35 -170 -50 -255 -12 -76 -19 -158 -19 -249
l-1 -98 105 -29 c58 -16 140 -39 183 -50 42 -12 77 -26 77 -30 0 -9 56 -6 120
5 392 70 706 179 995 346 608 349 1042 864 1288 1525 58 155 127 429 142 565
4 30 8 57 10 60 6 10 19 234 19 345 0 152 -13 335 -29 425 -3 14 -8 48 -11 75
-13 110 -109 449 -164 580 -33 77 -46 106 -88 195 -164 344 -460 721 -747 951
-44 35 -82 67 -85 70 -3 3 -43 32 -90 65 -426 298 -885 467 -1410 520 -64 6
-387 14 -392 9z"/>
</g>
</svg>
